<?xml version="1.0" encoding="UTF-8" standalone="no"?>
<!DOCTYPE svg PUBLIC "-//W3C//DTD SVG 1.1//EN"
 "http://www.w3.org/Graphics/SVG/1.1/DTD/svg11.dtd">
<!-- Generated by graphviz version 2.49.3 (20211023.0002)
 -->
<!-- Title: G Pages: 1 -->
<svg width="3727pt" height="1078pt"
 viewBox="0.00 0.00 3727.20 1078.40" xmlns="http://www.w3.org/2000/svg" xmlns:xlink="http://www.w3.org/1999/xlink">
<g id="graph0" class="graph" transform="scale(1 1) rotate(0) translate(21.6 1056.8)">
<title>G</title>
<polygon fill="#111111" stroke="transparent" points="-21.6,21.6 -21.6,-1056.8 3705.6,-1056.8 3705.6,21.6 -21.6,21.6"/>
<!-- App.test.tsx -->
<g id="node1" class="node">
<title>App.test.tsx</title>
<path fill="none" stroke="#c6c5fe" d="M187.83,-384C187.83,-384 111.17,-384 111.17,-384 107.33,-384 103.5,-380.17 103.5,-376.33 103.5,-376.33 103.5,-368.67 103.5,-368.67 103.5,-364.83 107.33,-361 111.17,-361 111.17,-361 187.83,-361 187.83,-361 191.67,-361 195.5,-364.83 195.5,-368.67 195.5,-368.67 195.5,-376.33 195.5,-376.33 195.5,-380.17 191.67,-384 187.83,-384"/>
<text text-anchor="middle" x="149.5" y="-368.8" font-family="Arial" font-size="14.00" fill="#c6c5fe">App.test.tsx</text>
</g>
<!-- App.tsx -->
<g id="node2" class="node">
<title>App.tsx</title>
<path fill="none" stroke="#c6c5fe" d="M499.33,-384C499.33,-384 449.67,-384 449.67,-384 445.83,-384 442,-380.17 442,-376.33 442,-376.33 442,-368.67 442,-368.67 442,-364.83 445.83,-361 449.67,-361 449.67,-361 499.33,-361 499.33,-361 503.17,-361 507,-364.83 507,-368.67 507,-368.67 507,-376.33 507,-376.33 507,-380.17 503.17,-384 499.33,-384"/>
<text text-anchor="middle" x="474.5" y="-368.8" font-family="Arial" font-size="14.00" fill="#c6c5fe">App.tsx</text>
</g>
<!-- App.test.tsx&#45;&gt;App.tsx -->
<g id="edge1" class="edge">
<title>App.test.tsx&#45;&gt;App.tsx</title>
<path fill="none" stroke="#757575" d="M195.75,-372.5C258.45,-372.5 370.87,-372.5 431.68,-372.5"/>
<polygon fill="#757575" stroke="#757575" points="431.7,-376 441.7,-372.5 431.7,-369 431.7,-376"/>
</g>
<!-- assets/sass/mainStyle.scss -->
<g id="node3" class="node">
<title>assets/sass/mainStyle.scss</title>
<path fill="none" stroke="#c6c5fe" d="M854.83,-918C854.83,-918 679.17,-918 679.17,-918 675.33,-918 671.5,-914.17 671.5,-910.33 671.5,-910.33 671.5,-902.67 671.5,-902.67 671.5,-898.83 675.33,-895 679.17,-895 679.17,-895 854.83,-895 854.83,-895 858.67,-895 862.5,-898.83 862.5,-902.67 862.5,-902.67 862.5,-910.33 862.5,-910.33 862.5,-914.17 858.67,-918 854.83,-918"/>
<text text-anchor="middle" x="767" y="-902.8" font-family="Arial" font-size="14.00" fill="#c6c5fe">assets/sass/mainStyle.scss</text>
</g>
<!-- App.tsx&#45;&gt;assets/sass/mainStyle.scss -->
<g id="edge2" class="edge">
<title>App.tsx&#45;&gt;assets/sass/mainStyle.scss</title>
<path fill="none" stroke="#757575" d="M492.23,-384.07C522.4,-405.99 585.43,-456.72 614,-516.5 669.05,-631.7 591,-688.28 650,-801.5 669.96,-839.81 709.89,-871.04 737.27,-889.2"/>
<polygon fill="#757575" stroke="#757575" points="735.73,-892.37 746.03,-894.86 739.52,-886.49 735.73,-892.37"/>
</g>
<!-- lang/local.tsx -->
<g id="node4" class="node">
<title>lang/local.tsx</title>
<path fill="none" stroke="#c6c5fe" d="M3303.33,-519C3303.33,-519 3220.67,-519 3220.67,-519 3216.83,-519 3213,-515.17 3213,-511.33 3213,-511.33 3213,-503.67 3213,-503.67 3213,-499.83 3216.83,-496 3220.67,-496 3220.67,-496 3303.33,-496 3303.33,-496 3307.17,-496 3311,-499.83 3311,-503.67 3311,-503.67 3311,-511.33 3311,-511.33 3311,-515.17 3307.17,-519 3303.33,-519"/>
<text text-anchor="middle" x="3262" y="-503.8" font-family="Arial" font-size="14.00" fill="#c6c5fe">lang/local.tsx</text>
</g>
<!-- App.tsx&#45;&gt;lang/local.tsx -->
<g id="edge3" class="edge">
<title>App.tsx&#45;&gt;lang/local.tsx</title>
<path fill="none" stroke="#757575" d="M487.51,-384.03C557.8,-451.06 917.82,-787.5 1061.5,-787.5 1061.5,-787.5 1061.5,-787.5 2465,-787.5 2600.48,-787.5 2951.87,-793.14 3072,-730.5 3161.92,-683.61 3226.62,-574.04 3250.69,-528.22"/>
<polygon fill="#757575" stroke="#757575" points="3253.86,-529.71 3255.32,-519.21 3247.63,-526.5 3253.86,-529.71"/>
</g>
<!-- modules/ErrorBoundary.tsx -->
<g id="node5" class="node">
<title>modules/ErrorBoundary.tsx</title>
<path fill="none" stroke="#cfffac" d="M853.33,-84C853.33,-84 680.67,-84 680.67,-84 676.83,-84 673,-80.17 673,-76.33 673,-76.33 673,-68.67 673,-68.67 673,-64.83 676.83,-61 680.67,-61 680.67,-61 853.33,-61 853.33,-61 857.17,-61 861,-64.83 861,-68.67 861,-68.67 861,-76.33 861,-76.33 861,-80.17 857.17,-84 853.33,-84"/>
<text text-anchor="middle" x="767" y="-68.8" font-family="Arial" font-size="14.00" fill="#cfffac">modules/ErrorBoundary.tsx</text>
</g>
<!-- App.tsx&#45;&gt;modules/ErrorBoundary.tsx -->
<g id="edge4" class="edge">
<title>App.tsx&#45;&gt;modules/ErrorBoundary.tsx</title>
<path fill="none" stroke="#757575" d="M507.18,-377.46C538.77,-380.45 586.44,-379.31 614,-351.5 693.94,-270.82 572.93,-181.93 650,-98.5 654.13,-94.03 658.84,-90.25 663.95,-87.05"/>
<polygon fill="#757575" stroke="#757575" points="665.77,-90.05 672.9,-82.21 662.44,-83.89 665.77,-90.05"/>
</g>
<!-- redux/store.tsx -->
<g id="node6" class="node">
<title>redux/store.tsx</title>
<path fill="none" stroke="#c6c5fe" d="M2931.83,-238C2931.83,-238 2837.17,-238 2837.17,-238 2833.33,-238 2829.5,-234.17 2829.5,-230.33 2829.5,-230.33 2829.5,-222.67 2829.5,-222.67 2829.5,-218.83 2833.33,-215 2837.17,-215 2837.17,-215 2931.83,-215 2931.83,-215 2935.67,-215 2939.5,-218.83 2939.5,-222.67 2939.5,-222.67 2939.5,-230.33 2939.5,-230.33 2939.5,-234.17 2935.67,-238 2931.83,-238"/>
<text text-anchor="middle" x="2884.5" y="-222.8" font-family="Arial" font-size="14.00" fill="#c6c5fe">redux/store.tsx</text>
</g>
<!-- App.tsx&#45;&gt;redux/store.tsx -->
<g id="edge5" class="edge">
<title>App.tsx&#45;&gt;redux/store.tsx</title>
<path fill="none" stroke="#757575" d="M507.01,-370.77C535.55,-368.5 578.45,-363.3 614,-351.5 827.99,-280.46 836.02,-112.5 1061.5,-112.5 1061.5,-112.5 1061.5,-112.5 2019.5,-112.5 2305.38,-112.5 2379.89,-107.53 2661,-159.5 2726.09,-171.53 2799.15,-195.67 2843.23,-211.45"/>
<polygon fill="#757575" stroke="#757575" points="2842.12,-214.77 2852.71,-214.87 2844.5,-208.18 2842.12,-214.77"/>
</g>
<!-- routing/Layout/LayoutController.tsx -->
<g id="node7" class="node">
<title>routing/Layout/LayoutController.tsx</title>
<path fill="none" stroke="#c6c5fe" d="M876.33,-384C876.33,-384 657.67,-384 657.67,-384 653.83,-384 650,-380.17 650,-376.33 650,-376.33 650,-368.67 650,-368.67 650,-364.83 653.83,-361 657.67,-361 657.67,-361 876.33,-361 876.33,-361 880.17,-361 884,-364.83 884,-368.67 884,-368.67 884,-376.33 884,-376.33 884,-380.17 880.17,-384 876.33,-384"/>
<text text-anchor="middle" x="767" y="-368.8" font-family="Arial" font-size="14.00" fill="#c6c5fe">routing/Layout/LayoutController.tsx</text>
</g>
<!-- App.tsx&#45;&gt;routing/Layout/LayoutController.tsx -->
<g id="edge6" class="edge">
<title>App.tsx&#45;&gt;routing/Layout/LayoutController.tsx</title>
<path fill="none" stroke="#757575" d="M507.14,-372.5C539.2,-372.5 590.88,-372.5 639.66,-372.5"/>
<polygon fill="#757575" stroke="#757575" points="639.7,-376 649.7,-372.5 639.7,-369 639.7,-376"/>
</g>
<!-- assets/sass/_Custom.scss -->
<g id="node10" class="node">
<title>assets/sass/_Custom.scss</title>
<path fill="none" stroke="#c6c5fe" d="M1148.83,-1000C1148.83,-1000 976.17,-1000 976.17,-1000 972.33,-1000 968.5,-996.17 968.5,-992.33 968.5,-992.33 968.5,-984.67 968.5,-984.67 968.5,-980.83 972.33,-977 976.17,-977 976.17,-977 1148.83,-977 1148.83,-977 1152.67,-977 1156.5,-980.83 1156.5,-984.67 1156.5,-984.67 1156.5,-992.33 1156.5,-992.33 1156.5,-996.17 1152.67,-1000 1148.83,-1000"/>
<text text-anchor="middle" x="1062.5" y="-984.8" font-family="Arial" font-size="14.00" fill="#c6c5fe">assets/sass/_Custom.scss</text>
</g>
<!-- assets/sass/mainStyle.scss&#45;&gt;assets/sass/_Custom.scss -->
<g id="edge8" class="edge">
<title>assets/sass/mainStyle.scss&#45;&gt;assets/sass/_Custom.scss</title>
<path fill="none" stroke="#757575" d="M791.07,-918.02C820.33,-932.12 872.68,-955.72 920,-968.5 932.31,-971.83 945.38,-974.62 958.41,-976.97"/>
<polygon fill="#757575" stroke="#757575" points="957.91,-980.43 968.36,-978.68 959.09,-973.53 957.91,-980.43"/>
</g>
<!-- assets/sass/_mixins.scss -->
<g id="node11" class="node">
<title>assets/sass/_mixins.scss</title>
<path fill="none" stroke="#cfffac" d="M1449.33,-1020C1449.33,-1020 1286.67,-1020 1286.67,-1020 1282.83,-1020 1279,-1016.17 1279,-1012.33 1279,-1012.33 1279,-1004.67 1279,-1004.67 1279,-1000.83 1282.83,-997 1286.67,-997 1286.67,-997 1449.33,-997 1449.33,-997 1453.17,-997 1457,-1000.83 1457,-1004.67 1457,-1004.67 1457,-1012.33 1457,-1012.33 1457,-1016.17 1453.17,-1020 1449.33,-1020"/>
<text text-anchor="middle" x="1368" y="-1004.8" font-family="Arial" font-size="14.00" fill="#cfffac">assets/sass/_mixins.scss</text>
</g>
<!-- assets/sass/mainStyle.scss&#45;&gt;assets/sass/_mixins.scss -->
<g id="edge12" class="edge">
<title>assets/sass/mainStyle.scss&#45;&gt;assets/sass/_mixins.scss</title>
<path fill="none" stroke="#757575" d="M779.66,-918.15C803.49,-941.05 860.58,-991.26 920,-1009.5 1047.16,-1048.52 1204.41,-1034.85 1294.47,-1021.54"/>
<polygon fill="#757575" stroke="#757575" points="1295.21,-1024.97 1304.57,-1020.01 1294.16,-1018.05 1295.21,-1024.97"/>
</g>
<!-- assets/sass/_Fonts.scss -->
<g id="node12" class="node">
<title>assets/sass/_Fonts.scss</title>
<path fill="none" stroke="#cfffac" d="M1141.83,-959C1141.83,-959 983.17,-959 983.17,-959 979.33,-959 975.5,-955.17 975.5,-951.33 975.5,-951.33 975.5,-943.67 975.5,-943.67 975.5,-939.83 979.33,-936 983.17,-936 983.17,-936 1141.83,-936 1141.83,-936 1145.67,-936 1149.5,-939.83 1149.5,-943.67 1149.5,-943.67 1149.5,-951.33 1149.5,-951.33 1149.5,-955.17 1145.67,-959 1141.83,-959"/>
<text text-anchor="middle" x="1062.5" y="-943.8" font-family="Arial" font-size="14.00" fill="#cfffac">assets/sass/_Fonts.scss</text>
</g>
<!-- assets/sass/mainStyle.scss&#45;&gt;assets/sass/_Fonts.scss -->
<g id="edge9" class="edge">
<title>assets/sass/mainStyle.scss&#45;&gt;assets/sass/_Fonts.scss</title>
<path fill="none" stroke="#757575" d="M850.54,-918.03C887.42,-923.18 931.05,-929.28 969.04,-934.58"/>
<polygon fill="#757575" stroke="#757575" points="968.69,-938.07 979.07,-935.99 969.65,-931.14 968.69,-938.07"/>
</g>
<!-- assets/sass/_Global.scss -->
<g id="node13" class="node">
<title>assets/sass/_Global.scss</title>
<path fill="none" stroke="#cfffac" d="M1144.33,-918C1144.33,-918 980.67,-918 980.67,-918 976.83,-918 973,-914.17 973,-910.33 973,-910.33 973,-902.67 973,-902.67 973,-898.83 976.83,-895 980.67,-895 980.67,-895 1144.33,-895 1144.33,-895 1148.17,-895 1152,-898.83 1152,-902.67 1152,-902.67 1152,-910.33 1152,-910.33 1152,-914.17 1148.17,-918 1144.33,-918"/>
<text text-anchor="middle" x="1062.5" y="-902.8" font-family="Arial" font-size="14.00" fill="#cfffac">assets/sass/_Global.scss</text>
</g>
<!-- assets/sass/mainStyle.scss&#45;&gt;assets/sass/_Global.scss -->
<g id="edge10" class="edge">
<title>assets/sass/mainStyle.scss&#45;&gt;assets/sass/_Global.scss</title>
<path fill="none" stroke="#757575" d="M862.89,-906.5C894.77,-906.5 930.41,-906.5 962.6,-906.5"/>
<polygon fill="#757575" stroke="#757575" points="962.92,-910 972.92,-906.5 962.92,-903 962.92,-910"/>
</g>
<!-- assets/sass/_Variables.scss -->
<g id="node14" class="node">
<title>assets/sass/_Variables.scss</title>
<path fill="none" stroke="#cfffac" d="M3352.83,-761C3352.83,-761 3171.17,-761 3171.17,-761 3167.33,-761 3163.5,-757.17 3163.5,-753.33 3163.5,-753.33 3163.5,-745.67 3163.5,-745.67 3163.5,-741.83 3167.33,-738 3171.17,-738 3171.17,-738 3352.83,-738 3352.83,-738 3356.67,-738 3360.5,-741.83 3360.5,-745.67 3360.5,-745.67 3360.5,-753.33 3360.5,-753.33 3360.5,-757.17 3356.67,-761 3352.83,-761"/>
<text text-anchor="middle" x="3262" y="-745.8" font-family="Arial" font-size="14.00" fill="#cfffac">assets/sass/_Variables.scss</text>
</g>
<!-- assets/sass/mainStyle.scss&#45;&gt;assets/sass/_Variables.scss -->
<g id="edge11" class="edge">
<title>assets/sass/mainStyle.scss&#45;&gt;assets/sass/_Variables.scss</title>
<path fill="none" stroke="#757575" d="M789.91,-894.96C818.8,-880.39 871.64,-855.97 920,-845.5 1114.36,-803.43 1168.13,-825.5 1367,-825.5 1367,-825.5 1367,-825.5 2465,-825.5 2734.99,-825.5 2805.21,-842.92 3072,-801.5 3123.24,-793.55 3180.45,-776.64 3218.36,-764.25"/>
<polygon fill="#757575" stroke="#757575" points="3219.65,-767.51 3228.04,-761.05 3217.45,-760.87 3219.65,-767.51"/>
</g>
<!-- assets/sass/_responsive.scss -->
<g id="node15" class="node">
<title>assets/sass/_responsive.scss</title>
<path fill="none" stroke="#cfffac" d="M1158.83,-877C1158.83,-877 966.17,-877 966.17,-877 962.33,-877 958.5,-873.17 958.5,-869.33 958.5,-869.33 958.5,-861.67 958.5,-861.67 958.5,-857.83 962.33,-854 966.17,-854 966.17,-854 1158.83,-854 1158.83,-854 1162.67,-854 1166.5,-857.83 1166.5,-861.67 1166.5,-861.67 1166.5,-869.33 1166.5,-869.33 1166.5,-873.17 1162.67,-877 1158.83,-877"/>
<text text-anchor="middle" x="1062.5" y="-861.8" font-family="Arial" font-size="14.00" fill="#cfffac">assets/sass/_responsive.scss</text>
</g>
<!-- assets/sass/mainStyle.scss&#45;&gt;assets/sass/_responsive.scss -->
<g id="edge13" class="edge">
<title>assets/sass/mainStyle.scss&#45;&gt;assets/sass/_responsive.scss</title>
<path fill="none" stroke="#757575" d="M850.54,-894.97C887.42,-889.82 931.05,-883.72 969.04,-878.42"/>
<polygon fill="#757575" stroke="#757575" points="969.65,-881.86 979.07,-877.01 968.69,-874.93 969.65,-881.86"/>
</g>
<!-- core/interfaces/ILocal.tsx -->
<g id="node36" class="node">
<title>core/interfaces/ILocal.tsx</title>
<path fill="none" stroke="#cfffac" d="M3648.33,-519C3648.33,-519 3487.67,-519 3487.67,-519 3483.83,-519 3480,-515.17 3480,-511.33 3480,-511.33 3480,-503.67 3480,-503.67 3480,-499.83 3483.83,-496 3487.67,-496 3487.67,-496 3648.33,-496 3648.33,-496 3652.17,-496 3656,-499.83 3656,-503.67 3656,-503.67 3656,-511.33 3656,-511.33 3656,-515.17 3652.17,-519 3648.33,-519"/>
<text text-anchor="middle" x="3568" y="-503.8" font-family="Arial" font-size="14.00" fill="#cfffac">core/interfaces/ILocal.tsx</text>
</g>
<!-- lang/local.tsx&#45;&gt;core/interfaces/ILocal.tsx -->
<g id="edge38" class="edge">
<title>lang/local.tsx&#45;&gt;core/interfaces/ILocal.tsx</title>
<path fill="none" stroke="#757575" d="M3311.17,-507.5C3353.64,-507.5 3416.82,-507.5 3469.76,-507.5"/>
<polygon fill="#757575" stroke="#757575" points="3469.86,-511 3479.86,-507.5 3469.86,-504 3469.86,-511"/>
</g>
<!-- lang/ar.json -->
<g id="node44" class="node">
<title>lang/ar.json</title>
<path fill="none" stroke="#cfffac" d="M3604.83,-478C3604.83,-478 3531.17,-478 3531.17,-478 3527.33,-478 3523.5,-474.17 3523.5,-470.33 3523.5,-470.33 3523.5,-462.67 3523.5,-462.67 3523.5,-458.83 3527.33,-455 3531.17,-455 3531.17,-455 3604.83,-455 3604.83,-455 3608.67,-455 3612.5,-458.83 3612.5,-462.67 3612.5,-462.67 3612.5,-470.33 3612.5,-470.33 3612.5,-474.17 3608.67,-478 3604.83,-478"/>
<text text-anchor="middle" x="3568" y="-462.8" font-family="Arial" font-size="14.00" fill="#cfffac">lang/ar.json</text>
</g>
<!-- lang/local.tsx&#45;&gt;lang/ar.json -->
<g id="edge39" class="edge">
<title>lang/local.tsx&#45;&gt;lang/ar.json</title>
<path fill="none" stroke="#757575" d="M3311.17,-501C3366.29,-493.57 3456.31,-481.43 3513.55,-473.71"/>
<polygon fill="#757575" stroke="#757575" points="3514.05,-477.17 3523.49,-472.37 3513.11,-470.24 3514.05,-477.17"/>
</g>
<!-- lang/en.json -->
<g id="node45" class="node">
<title>lang/en.json</title>
<path fill="none" stroke="#cfffac" d="M3606.33,-560C3606.33,-560 3529.67,-560 3529.67,-560 3525.83,-560 3522,-556.17 3522,-552.33 3522,-552.33 3522,-544.67 3522,-544.67 3522,-540.83 3525.83,-537 3529.67,-537 3529.67,-537 3606.33,-537 3606.33,-537 3610.17,-537 3614,-540.83 3614,-544.67 3614,-544.67 3614,-552.33 3614,-552.33 3614,-556.17 3610.17,-560 3606.33,-560"/>
<text text-anchor="middle" x="3568" y="-544.8" font-family="Arial" font-size="14.00" fill="#cfffac">lang/en.json</text>
</g>
<!-- lang/local.tsx&#45;&gt;lang/en.json -->
<g id="edge40" class="edge">
<title>lang/local.tsx&#45;&gt;lang/en.json</title>
<path fill="none" stroke="#757575" d="M3311.17,-514C3365.66,-521.35 3454.25,-533.29 3511.57,-541.02"/>
<polygon fill="#757575" stroke="#757575" points="3511.16,-544.5 3521.54,-542.37 3512.1,-537.56 3511.16,-544.5"/>
</g>
<!-- modules/Home/homeSlice.tsx -->
<g id="node57" class="node">
<title>modules/Home/homeSlice.tsx</title>
<path fill="none" stroke="#c6c5fe" d="M3357.33,-197C3357.33,-197 3166.67,-197 3166.67,-197 3162.83,-197 3159,-193.17 3159,-189.33 3159,-189.33 3159,-181.67 3159,-181.67 3159,-177.83 3162.83,-174 3166.67,-174 3166.67,-174 3357.33,-174 3357.33,-174 3361.17,-174 3365,-177.83 3365,-181.67 3365,-181.67 3365,-189.33 3365,-189.33 3365,-193.17 3361.17,-197 3357.33,-197"/>
<text text-anchor="middle" x="3262" y="-181.8" font-family="Arial" font-size="14.00" fill="#c6c5fe">modules/Home/homeSlice.tsx</text>
</g>
<!-- redux/store.tsx&#45;&gt;modules/Home/homeSlice.tsx -->
<g id="edge71" class="edge">
<title>redux/store.tsx&#45;&gt;modules/Home/homeSlice.tsx</title>
<path fill="none" stroke="#757575" d="M2939.7,-220.58C2994.1,-214.64 3079.5,-205.32 3148.59,-197.77"/>
<polygon fill="#757575" stroke="#757575" points="3149.1,-201.24 3158.66,-196.67 3148.34,-194.28 3149.1,-201.24"/>
</g>
<!-- redux/reducers/errorSlice.tsx -->
<g id="node61" class="node">
<title>redux/reducers/errorSlice.tsx</title>
<path fill="none" stroke="#c6c5fe" d="M3353.83,-238C3353.83,-238 3170.17,-238 3170.17,-238 3166.33,-238 3162.5,-234.17 3162.5,-230.33 3162.5,-230.33 3162.5,-222.67 3162.5,-222.67 3162.5,-218.83 3166.33,-215 3170.17,-215 3170.17,-215 3353.83,-215 3353.83,-215 3357.67,-215 3361.5,-218.83 3361.5,-222.67 3361.5,-222.67 3361.5,-230.33 3361.5,-230.33 3361.5,-234.17 3357.67,-238 3353.83,-238"/>
<text text-anchor="middle" x="3262" y="-222.8" font-family="Arial" font-size="14.00" fill="#c6c5fe">redux/reducers/errorSlice.tsx</text>
</g>
<!-- redux/store.tsx&#45;&gt;redux/reducers/errorSlice.tsx -->
<g id="edge72" class="edge">
<title>redux/store.tsx&#45;&gt;redux/reducers/errorSlice.tsx</title>
<path fill="none" stroke="#757575" d="M2939.7,-226.5C2995.06,-226.5 3082.55,-226.5 3152.26,-226.5"/>
<polygon fill="#757575" stroke="#757575" points="3152.41,-230 3162.41,-226.5 3152.41,-223 3152.41,-230"/>
</g>
<!-- components/Header/HeaderController.tsx -->
<g id="node23" class="node">
<title>components/Header/HeaderController.tsx</title>
<path fill="none" stroke="#c6c5fe" d="M2150.33,-403C2150.33,-403 1886.67,-403 1886.67,-403 1882.83,-403 1879,-399.17 1879,-395.33 1879,-395.33 1879,-387.67 1879,-387.67 1879,-383.83 1882.83,-380 1886.67,-380 1886.67,-380 2150.33,-380 2150.33,-380 2154.17,-380 2158,-383.83 2158,-387.67 2158,-387.67 2158,-395.33 2158,-395.33 2158,-399.17 2154.17,-403 2150.33,-403"/>
<text text-anchor="middle" x="2018.5" y="-387.8" font-family="Arial" font-size="14.00" fill="#c6c5fe">components/Header/HeaderController.tsx</text>
</g>
<!-- routing/Layout/LayoutController.tsx&#45;&gt;components/Header/HeaderController.tsx -->
<g id="edge74" class="edge">
<title>routing/Layout/LayoutController.tsx&#45;&gt;components/Header/HeaderController.tsx</title>
<path fill="none" stroke="#757575" d="M884.15,-374.27C1111.81,-377.73 1616.41,-385.4 1868.34,-389.23"/>
<polygon fill="#757575" stroke="#757575" points="1868.62,-392.74 1878.67,-389.39 1868.73,-385.74 1868.62,-392.74"/>
</g>
<!-- components/Sidebar/SidebarController.tsx -->
<g id="node31" class="node">
<title>components/Sidebar/SidebarController.tsx</title>
<path fill="none" stroke="#c6c5fe" d="M1197.33,-325C1197.33,-325 927.67,-325 927.67,-325 923.83,-325 920,-321.17 920,-317.33 920,-317.33 920,-309.67 920,-309.67 920,-305.83 923.83,-302 927.67,-302 927.67,-302 1197.33,-302 1197.33,-302 1201.17,-302 1205,-305.83 1205,-309.67 1205,-309.67 1205,-317.33 1205,-317.33 1205,-321.17 1201.17,-325 1197.33,-325"/>
<text text-anchor="middle" x="1062.5" y="-309.8" font-family="Arial" font-size="14.00" fill="#c6c5fe">components/Sidebar/SidebarController.tsx</text>
</g>
<!-- routing/Layout/LayoutController.tsx&#45;&gt;components/Sidebar/SidebarController.tsx -->
<g id="edge75" class="edge">
<title>routing/Layout/LayoutController.tsx&#45;&gt;components/Sidebar/SidebarController.tsx</title>
<path fill="none" stroke="#757575" d="M819.28,-360.94C848.7,-354.41 886.37,-346.24 920,-339.5 941.46,-335.2 964.81,-330.8 986.23,-326.87"/>
<polygon fill="#757575" stroke="#757575" points="987.05,-330.28 996.25,-325.04 985.79,-323.39 987.05,-330.28"/>
</g>
<!-- routing/routes.tsx -->
<g id="node33" class="node">
<title>routing/routes.tsx</title>
<path fill="none" stroke="#c6c5fe" d="M1422.83,-344C1422.83,-344 1313.17,-344 1313.17,-344 1309.33,-344 1305.5,-340.17 1305.5,-336.33 1305.5,-336.33 1305.5,-328.67 1305.5,-328.67 1305.5,-324.83 1309.33,-321 1313.17,-321 1313.17,-321 1422.83,-321 1422.83,-321 1426.67,-321 1430.5,-324.83 1430.5,-328.67 1430.5,-328.67 1430.5,-336.33 1430.5,-336.33 1430.5,-340.17 1426.67,-344 1422.83,-344"/>
<text text-anchor="middle" x="1368" y="-328.8" font-family="Arial" font-size="14.00" fill="#c6c5fe">routing/routes.tsx</text>
</g>
<!-- routing/Layout/LayoutController.tsx&#45;&gt;routing/routes.tsx -->
<g id="edge77" class="edge">
<title>routing/Layout/LayoutController.tsx&#45;&gt;routing/routes.tsx</title>
<path fill="none" stroke="#757575" d="M884.2,-364.74C1005.91,-356.61 1193.22,-344.1 1295.05,-337.3"/>
<polygon fill="#757575" stroke="#757575" points="1295.49,-340.78 1305.24,-336.62 1295.03,-333.8 1295.49,-340.78"/>
</g>
<!-- routing/Layout/LayoutView.tsx -->
<g id="node63" class="node">
<title>routing/Layout/LayoutView.tsx</title>
<path fill="none" stroke="#c6c5fe" d="M1156.33,-483C1156.33,-483 968.67,-483 968.67,-483 964.83,-483 961,-479.17 961,-475.33 961,-475.33 961,-467.67 961,-467.67 961,-463.83 964.83,-460 968.67,-460 968.67,-460 1156.33,-460 1156.33,-460 1160.17,-460 1164,-463.83 1164,-467.67 1164,-467.67 1164,-475.33 1164,-475.33 1164,-479.17 1160.17,-483 1156.33,-483"/>
<text text-anchor="middle" x="1062.5" y="-467.8" font-family="Arial" font-size="14.00" fill="#c6c5fe">routing/Layout/LayoutView.tsx</text>
</g>
<!-- routing/Layout/LayoutController.tsx&#45;&gt;routing/Layout/LayoutView.tsx -->
<g id="edge76" class="edge">
<title>routing/Layout/LayoutController.tsx&#45;&gt;routing/Layout/LayoutView.tsx</title>
<path fill="none" stroke="#757575" d="M802.24,-384.05C855.56,-402.04 958.4,-436.72 1017.27,-456.58"/>
<polygon fill="#757575" stroke="#757575" points="1016.43,-459.99 1027.02,-459.87 1018.67,-453.36 1016.43,-459.99"/>
</g>
<!-- assets/icons/DashIcon.tsx -->
<g id="node8" class="node">
<title>assets/icons/DashIcon.tsx</title>
<path fill="none" stroke="#cfffac" d="M232.83,-425C232.83,-425 66.17,-425 66.17,-425 62.33,-425 58.5,-421.17 58.5,-417.33 58.5,-417.33 58.5,-409.67 58.5,-409.67 58.5,-405.83 62.33,-402 66.17,-402 66.17,-402 232.83,-402 232.83,-402 236.67,-402 240.5,-405.83 240.5,-409.67 240.5,-409.67 240.5,-417.33 240.5,-417.33 240.5,-421.17 236.67,-425 232.83,-425"/>
<text text-anchor="middle" x="149.5" y="-409.8" font-family="Arial" font-size="14.00" fill="#cfffac">assets/icons/DashIcon.tsx</text>
</g>
<!-- assets/icons/HomeBanner.tsx -->
<g id="node9" class="node">
<title>assets/icons/HomeBanner.tsx</title>
<path fill="none" stroke="#cfffac" d="M244.33,-466C244.33,-466 54.67,-466 54.67,-466 50.83,-466 47,-462.17 47,-458.33 47,-458.33 47,-450.67 47,-450.67 47,-446.83 50.83,-443 54.67,-443 54.67,-443 244.33,-443 244.33,-443 248.17,-443 252,-446.83 252,-450.67 252,-450.67 252,-458.33 252,-458.33 252,-462.17 248.17,-466 244.33,-466"/>
<text text-anchor="middle" x="149.5" y="-450.8" font-family="Arial" font-size="14.00" fill="#cfffac">assets/icons/HomeBanner.tsx</text>
</g>
<!-- assets/sass/_Custom.scss&#45;&gt;assets/sass/_mixins.scss -->
<g id="edge7" class="edge">
<title>assets/sass/_Custom.scss&#45;&gt;assets/sass/_mixins.scss</title>
<path fill="none" stroke="#757575" d="M1156.62,-994.64C1192.22,-996.98 1232.9,-999.66 1268.95,-1002.04"/>
<polygon fill="#757575" stroke="#757575" points="1268.77,-1005.53 1278.98,-1002.7 1269.23,-998.55 1268.77,-1005.53"/>
</g>
<!-- components/Charts/AreaChart.js -->
<g id="node16" class="node">
<title>components/Charts/AreaChart.js</title>
<path fill="none" stroke="#cfffac" d="M2987.83,-84C2987.83,-84 2781.17,-84 2781.17,-84 2777.33,-84 2773.5,-80.17 2773.5,-76.33 2773.5,-76.33 2773.5,-68.67 2773.5,-68.67 2773.5,-64.83 2777.33,-61 2781.17,-61 2781.17,-61 2987.83,-61 2987.83,-61 2991.67,-61 2995.5,-64.83 2995.5,-68.67 2995.5,-68.67 2995.5,-76.33 2995.5,-76.33 2995.5,-80.17 2991.67,-84 2987.83,-84"/>
<text text-anchor="middle" x="2884.5" y="-68.8" font-family="Arial" font-size="14.00" fill="#cfffac">components/Charts/AreaChart.js</text>
</g>
<!-- components/Charts/d3/Chart.js -->
<g id="node17" class="node">
<title>components/Charts/d3/Chart.js</title>
<path fill="none" stroke="#c6c5fe" d="M2982.83,-43C2982.83,-43 2786.17,-43 2786.17,-43 2782.33,-43 2778.5,-39.17 2778.5,-35.33 2778.5,-35.33 2778.5,-27.67 2778.5,-27.67 2778.5,-23.83 2782.33,-20 2786.17,-20 2786.17,-20 2982.83,-20 2982.83,-20 2986.67,-20 2990.5,-23.83 2990.5,-27.67 2990.5,-27.67 2990.5,-35.33 2990.5,-35.33 2990.5,-39.17 2986.67,-43 2982.83,-43"/>
<text text-anchor="middle" x="2884.5" y="-27.8" font-family="Arial" font-size="14.00" fill="#c6c5fe">components/Charts/d3/Chart.js</text>
</g>
<!-- components/Charts/d3/Chart.scss -->
<g id="node18" class="node">
<title>components/Charts/d3/Chart.scss</title>
<path fill="none" stroke="#cfffac" d="M3676.33,-43C3676.33,-43 3459.67,-43 3459.67,-43 3455.83,-43 3452,-39.17 3452,-35.33 3452,-35.33 3452,-27.67 3452,-27.67 3452,-23.83 3455.83,-20 3459.67,-20 3459.67,-20 3676.33,-20 3676.33,-20 3680.17,-20 3684,-23.83 3684,-27.67 3684,-27.67 3684,-35.33 3684,-35.33 3684,-39.17 3680.17,-43 3676.33,-43"/>
<text text-anchor="middle" x="3568" y="-27.8" font-family="Arial" font-size="14.00" fill="#cfffac">components/Charts/d3/Chart.scss</text>
</g>
<!-- components/Charts/d3/Chart.js&#45;&gt;components/Charts/d3/Chart.scss -->
<g id="edge14" class="edge">
<title>components/Charts/d3/Chart.js&#45;&gt;components/Charts/d3/Chart.scss</title>
<path fill="none" stroke="#757575" d="M2990.86,-31.5C3112.36,-31.5 3311.94,-31.5 3441.4,-31.5"/>
<polygon fill="#757575" stroke="#757575" points="3441.76,-35 3451.76,-31.5 3441.76,-28 3441.76,-35"/>
</g>
<!-- components/Charts/d3/LineChart.js -->
<g id="node19" class="node">
<title>components/Charts/d3/LineChart.js</title>
<path fill="none" stroke="#c6c5fe" d="M3373.83,-23C3373.83,-23 3150.17,-23 3150.17,-23 3146.33,-23 3142.5,-19.17 3142.5,-15.33 3142.5,-15.33 3142.5,-7.67 3142.5,-7.67 3142.5,-3.83 3146.33,0 3150.17,0 3150.17,0 3373.83,0 3373.83,0 3377.67,0 3381.5,-3.83 3381.5,-7.67 3381.5,-7.67 3381.5,-15.33 3381.5,-15.33 3381.5,-19.17 3377.67,-23 3373.83,-23"/>
<text text-anchor="middle" x="3262" y="-7.8" font-family="Arial" font-size="14.00" fill="#c6c5fe">components/Charts/d3/LineChart.js</text>
</g>
<!-- components/Charts/d3/Chart.js&#45;&gt;components/Charts/d3/LineChart.js -->
<g id="edge15" class="edge">
<title>components/Charts/d3/Chart.js&#45;&gt;components/Charts/d3/LineChart.js</title>
<path fill="none" stroke="#757575" d="M2990.6,-25.9C3034.56,-23.56 3086.08,-20.82 3132.29,-18.36"/>
<polygon fill="#757575" stroke="#757575" points="3132.57,-21.85 3142.37,-17.82 3132.2,-14.86 3132.57,-21.85"/>
</g>
<!-- components/Charts/d3/LineChart.js&#45;&gt;components/Charts/d3/Chart.scss -->
<g id="edge16" class="edge">
<title>components/Charts/d3/LineChart.js&#45;&gt;components/Charts/d3/Chart.scss</title>
<path fill="none" stroke="#757575" d="M3381.84,-19.32C3401.5,-20.61 3421.94,-21.96 3441.75,-23.26"/>
<polygon fill="#757575" stroke="#757575" points="3441.52,-26.75 3451.73,-23.92 3441.98,-19.77 3441.52,-26.75"/>
</g>
<!-- components/CustomTable/CustomTable.scss -->
<g id="node20" class="node">
<title>components/CustomTable/CustomTable.scss</title>
<path fill="none" stroke="#cfffac" d="M3408.33,-400C3408.33,-400 3115.67,-400 3115.67,-400 3111.83,-400 3108,-396.17 3108,-392.33 3108,-392.33 3108,-384.67 3108,-384.67 3108,-380.83 3111.83,-377 3115.67,-377 3115.67,-377 3408.33,-377 3408.33,-377 3412.17,-377 3416,-380.83 3416,-384.67 3416,-384.67 3416,-392.33 3416,-392.33 3416,-396.17 3412.17,-400 3408.33,-400"/>
<text text-anchor="middle" x="3262" y="-384.8" font-family="Arial" font-size="14.00" fill="#cfffac">components/CustomTable/CustomTable.scss</text>
</g>
<!-- components/CustomTable/CustomTable.tsx -->
<g id="node21" class="node">
<title>components/CustomTable/CustomTable.tsx</title>
<path fill="none" stroke="#c6c5fe" d="M3024.83,-400C3024.83,-400 2744.17,-400 2744.17,-400 2740.33,-400 2736.5,-396.17 2736.5,-392.33 2736.5,-392.33 2736.5,-384.67 2736.5,-384.67 2736.5,-380.83 2740.33,-377 2744.17,-377 2744.17,-377 3024.83,-377 3024.83,-377 3028.67,-377 3032.5,-380.83 3032.5,-384.67 3032.5,-384.67 3032.5,-392.33 3032.5,-392.33 3032.5,-396.17 3028.67,-400 3024.83,-400"/>
<text text-anchor="middle" x="2884.5" y="-384.8" font-family="Arial" font-size="14.00" fill="#c6c5fe">components/CustomTable/CustomTable.tsx</text>
</g>
<!-- components/CustomTable/CustomTable.tsx&#45;&gt;lang/local.tsx -->
<g id="edge18" class="edge">
<title>components/CustomTable/CustomTable.tsx&#45;&gt;lang/local.tsx</title>
<path fill="none" stroke="#757575" d="M3032.65,-399.01C3046.09,-401.55 3059.38,-404.67 3072,-408.5 3134.47,-427.46 3200.51,-467.24 3235.59,-490.18"/>
<polygon fill="#757575" stroke="#757575" points="3233.96,-493.3 3244.23,-495.9 3237.82,-487.46 3233.96,-493.3"/>
</g>
<!-- components/CustomTable/CustomTable.tsx&#45;&gt;components/CustomTable/CustomTable.scss -->
<g id="edge17" class="edge">
<title>components/CustomTable/CustomTable.tsx&#45;&gt;components/CustomTable/CustomTable.scss</title>
<path fill="none" stroke="#757575" d="M3032.56,-388.5C3053.86,-388.5 3075.89,-388.5 3097.48,-388.5"/>
<polygon fill="#757575" stroke="#757575" points="3097.71,-392 3107.71,-388.5 3097.71,-385 3097.71,-392"/>
</g>
<!-- components/Header/Header.scss -->
<g id="node22" class="node">
<title>components/Header/Header.scss</title>
<path fill="none" stroke="#c6c5fe" d="M2991.83,-721C2991.83,-721 2777.17,-721 2777.17,-721 2773.33,-721 2769.5,-717.17 2769.5,-713.33 2769.5,-713.33 2769.5,-705.67 2769.5,-705.67 2769.5,-701.83 2773.33,-698 2777.17,-698 2777.17,-698 2991.83,-698 2991.83,-698 2995.67,-698 2999.5,-701.83 2999.5,-705.67 2999.5,-705.67 2999.5,-713.33 2999.5,-713.33 2999.5,-717.17 2995.67,-721 2991.83,-721"/>
<text text-anchor="middle" x="2884.5" y="-705.8" font-family="Arial" font-size="14.00" fill="#c6c5fe">components/Header/Header.scss</text>
</g>
<!-- components/Header/Header.scss&#45;&gt;assets/sass/_Variables.scss -->
<g id="edge19" class="edge">
<title>components/Header/Header.scss&#45;&gt;assets/sass/_Variables.scss</title>
<path fill="none" stroke="#757575" d="M2993.61,-721.02C3043.67,-726.35 3103.01,-732.67 3153.06,-738"/>
<polygon fill="#757575" stroke="#757575" points="3152.95,-741.51 3163.26,-739.09 3153.69,-734.55 3152.95,-741.51"/>
</g>
<!-- components/Header/HeaderController.tsx&#45;&gt;redux/store.tsx -->
<g id="edge23" class="edge">
<title>components/Header/HeaderController.tsx&#45;&gt;redux/store.tsx</title>
<path fill="none" stroke="#757575" d="M2158.06,-394.52C2334.79,-397.09 2622.32,-396.47 2661,-366.5 2705.02,-332.4 2654.17,-282.08 2697,-246.5 2730.42,-218.75 2779.64,-214.49 2819.13,-216.77"/>
<polygon fill="#757575" stroke="#757575" points="2818.98,-220.27 2829.2,-217.5 2819.49,-213.29 2818.98,-220.27"/>
</g>
<!-- components/Header/HeaderView.tsx -->
<g id="node24" class="node">
<title>components/Header/HeaderView.tsx</title>
<path fill="none" stroke="#c6c5fe" d="M2580.33,-619C2580.33,-619 2347.67,-619 2347.67,-619 2343.83,-619 2340,-615.17 2340,-611.33 2340,-611.33 2340,-603.67 2340,-603.67 2340,-599.83 2343.83,-596 2347.67,-596 2347.67,-596 2580.33,-596 2580.33,-596 2584.17,-596 2588,-599.83 2588,-603.67 2588,-603.67 2588,-611.33 2588,-611.33 2588,-615.17 2584.17,-619 2580.33,-619"/>
<text text-anchor="middle" x="2464" y="-603.8" font-family="Arial" font-size="14.00" fill="#c6c5fe">components/Header/HeaderView.tsx</text>
</g>
<!-- components/Header/HeaderController.tsx&#45;&gt;components/Header/HeaderView.tsx -->
<g id="edge20" class="edge">
<title>components/Header/HeaderController.tsx&#45;&gt;components/Header/HeaderView.tsx</title>
<path fill="none" stroke="#757575" d="M2043.34,-403.11C2117.58,-439.27 2344.7,-549.88 2430.08,-591.47"/>
<polygon fill="#757575" stroke="#757575" points="2428.78,-594.73 2439.31,-595.96 2431.85,-588.44 2428.78,-594.73"/>
</g>
<!-- modules/Home/homeService.tsx -->
<g id="node25" class="node">
<title>modules/Home/homeService.tsx</title>
<path fill="none" stroke="#c6c5fe" d="M2567.83,-358C2567.83,-358 2360.17,-358 2360.17,-358 2356.33,-358 2352.5,-354.17 2352.5,-350.33 2352.5,-350.33 2352.5,-342.67 2352.5,-342.67 2352.5,-338.83 2356.33,-335 2360.17,-335 2360.17,-335 2567.83,-335 2567.83,-335 2571.67,-335 2575.5,-338.83 2575.5,-342.67 2575.5,-342.67 2575.5,-350.33 2575.5,-350.33 2575.5,-354.17 2571.67,-358 2567.83,-358"/>
<text text-anchor="middle" x="2464" y="-342.8" font-family="Arial" font-size="14.00" fill="#c6c5fe">modules/Home/homeService.tsx</text>
</g>
<!-- components/Header/HeaderController.tsx&#45;&gt;modules/Home/homeService.tsx -->
<g id="edge21" class="edge">
<title>components/Header/HeaderController.tsx&#45;&gt;modules/Home/homeService.tsx</title>
<path fill="none" stroke="#757575" d="M2132.85,-380C2196.8,-373.51 2276.69,-365.4 2341.87,-358.79"/>
<polygon fill="#757575" stroke="#757575" points="2342.61,-362.23 2352.2,-357.74 2341.9,-355.27 2342.61,-362.23"/>
</g>
<!-- redux/hooks.ts -->
<g id="node26" class="node">
<title>redux/hooks.ts</title>
<path fill="none" stroke="#c6c5fe" d="M2510.83,-278C2510.83,-278 2417.17,-278 2417.17,-278 2413.33,-278 2409.5,-274.17 2409.5,-270.33 2409.5,-270.33 2409.5,-262.67 2409.5,-262.67 2409.5,-258.83 2413.33,-255 2417.17,-255 2417.17,-255 2510.83,-255 2510.83,-255 2514.67,-255 2518.5,-258.83 2518.5,-262.67 2518.5,-262.67 2518.5,-270.33 2518.5,-270.33 2518.5,-274.17 2514.67,-278 2510.83,-278"/>
<text text-anchor="middle" x="2464" y="-262.8" font-family="Arial" font-size="14.00" fill="#c6c5fe">redux/hooks.ts</text>
</g>
<!-- components/Header/HeaderController.tsx&#45;&gt;redux/hooks.ts -->
<g id="edge22" class="edge">
<title>components/Header/HeaderController.tsx&#45;&gt;redux/hooks.ts</title>
<path fill="none" stroke="#757575" d="M2060.43,-379.96C2141.78,-357.04 2323.6,-305.79 2412.34,-280.78"/>
<polygon fill="#757575" stroke="#757575" points="2413.49,-284.09 2422.17,-278.01 2411.6,-277.35 2413.49,-284.09"/>
</g>
<!-- components/Header/HeaderView.tsx&#45;&gt;lang/local.tsx -->
<g id="edge26" class="edge">
<title>components/Header/HeaderView.tsx&#45;&gt;lang/local.tsx</title>
<path fill="none" stroke="#757575" d="M2588.2,-608.48C2711.63,-607.39 2906.54,-600.01 3072,-568.5 3125.79,-558.26 3185.58,-537.25 3223.22,-522.77"/>
<polygon fill="#757575" stroke="#757575" points="3224.71,-525.95 3232.76,-519.06 3222.17,-519.42 3224.71,-525.95"/>
</g>
<!-- components/Header/HeaderView.tsx&#45;&gt;components/Header/Header.scss -->
<g id="edge24" class="edge">
<title>components/Header/HeaderView.tsx&#45;&gt;components/Header/Header.scss</title>
<path fill="none" stroke="#757575" d="M2491.2,-619.03C2533.56,-637.16 2620.14,-672.05 2697,-689.5 2717.01,-694.04 2738.47,-697.56 2759.46,-700.29"/>
<polygon fill="#757575" stroke="#757575" points="2759.03,-703.76 2769.38,-701.52 2759.89,-696.81 2759.03,-703.76"/>
</g>
<!-- components/Header/Language.tsx -->
<g id="node27" class="node">
<title>components/Header/Language.tsx</title>
<path fill="none" stroke="#c6c5fe" d="M2993.83,-559C2993.83,-559 2775.17,-559 2775.17,-559 2771.33,-559 2767.5,-555.17 2767.5,-551.33 2767.5,-551.33 2767.5,-543.67 2767.5,-543.67 2767.5,-539.83 2771.33,-536 2775.17,-536 2775.17,-536 2993.83,-536 2993.83,-536 2997.67,-536 3001.5,-539.83 3001.5,-543.67 3001.5,-543.67 3001.5,-551.33 3001.5,-551.33 3001.5,-555.17 2997.67,-559 2993.83,-559"/>
<text text-anchor="middle" x="2884.5" y="-543.8" font-family="Arial" font-size="14.00" fill="#c6c5fe">components/Header/Language.tsx</text>
</g>
<!-- components/Header/HeaderView.tsx&#45;&gt;components/Header/Language.tsx -->
<g id="edge25" class="edge">
<title>components/Header/HeaderView.tsx&#45;&gt;components/Header/Language.tsx</title>
<path fill="none" stroke="#757575" d="M2542.58,-595.99C2587.64,-589.34 2645.52,-580.86 2697,-573.5 2727.24,-569.18 2760.25,-564.55 2789.98,-560.41"/>
<polygon fill="#757575" stroke="#757575" points="2790.5,-563.87 2799.93,-559.02 2789.54,-556.93 2790.5,-563.87"/>
</g>
<!-- styles/selectStyle.tsx -->
<g id="node28" class="node">
<title>styles/selectStyle.tsx</title>
<path fill="none" stroke="#cfffac" d="M2951.33,-680C2951.33,-680 2817.67,-680 2817.67,-680 2813.83,-680 2810,-676.17 2810,-672.33 2810,-672.33 2810,-664.67 2810,-664.67 2810,-660.83 2813.83,-657 2817.67,-657 2817.67,-657 2951.33,-657 2951.33,-657 2955.17,-657 2959,-660.83 2959,-664.67 2959,-664.67 2959,-672.33 2959,-672.33 2959,-676.17 2955.17,-680 2951.33,-680"/>
<text text-anchor="middle" x="2884.5" y="-664.8" font-family="Arial" font-size="14.00" fill="#cfffac">styles/selectStyle.tsx</text>
</g>
<!-- components/Header/HeaderView.tsx&#45;&gt;styles/selectStyle.tsx -->
<g id="edge27" class="edge">
<title>components/Header/HeaderView.tsx&#45;&gt;styles/selectStyle.tsx</title>
<path fill="none" stroke="#757575" d="M2523.94,-619.06C2570.73,-627.96 2637.87,-640.12 2697,-648.5 2730.46,-653.24 2767.43,-657.43 2799.58,-660.73"/>
<polygon fill="#757575" stroke="#757575" points="2799.53,-664.24 2809.84,-661.77 2800.24,-657.28 2799.53,-664.24"/>
</g>
<!-- utils/get&#45;default&#45;item.tsx -->
<g id="node29" class="node">
<title>utils/get&#45;default&#45;item.tsx</title>
<path fill="none" stroke="#cfffac" d="M2959.83,-639C2959.83,-639 2809.17,-639 2809.17,-639 2805.33,-639 2801.5,-635.17 2801.5,-631.33 2801.5,-631.33 2801.5,-623.67 2801.5,-623.67 2801.5,-619.83 2805.33,-616 2809.17,-616 2809.17,-616 2959.83,-616 2959.83,-616 2963.67,-616 2967.5,-619.83 2967.5,-623.67 2967.5,-623.67 2967.5,-631.33 2967.5,-631.33 2967.5,-635.17 2963.67,-639 2959.83,-639"/>
<text text-anchor="middle" x="2884.5" y="-623.8" font-family="Arial" font-size="14.00" fill="#cfffac">utils/get&#45;default&#45;item.tsx</text>
</g>
<!-- components/Header/HeaderView.tsx&#45;&gt;utils/get&#45;default&#45;item.tsx -->
<g id="edge28" class="edge">
<title>components/Header/HeaderView.tsx&#45;&gt;utils/get&#45;default&#45;item.tsx</title>
<path fill="none" stroke="#757575" d="M2588.02,-613.38C2652.99,-616.48 2731.4,-620.23 2791.11,-623.08"/>
<polygon fill="#757575" stroke="#757575" points="2791.13,-626.59 2801.28,-623.57 2791.46,-619.6 2791.13,-626.59"/>
</g>
<!-- modules/Home/homeService.tsx&#45;&gt;redux/store.tsx -->
<g id="edge65" class="edge">
<title>modules/Home/homeService.tsx&#45;&gt;redux/store.tsx</title>
<path fill="none" stroke="#757575" d="M2575.54,-350.47C2605.51,-346.82 2636.43,-338.22 2661,-320.5 2690.66,-299.1 2667.07,-267.52 2697,-246.5 2732.1,-221.84 2780.46,-217.26 2819.14,-218.63"/>
<polygon fill="#757575" stroke="#757575" points="2819.1,-222.13 2829.26,-219.13 2819.44,-215.14 2819.1,-222.13"/>
</g>
<!-- infrastructure/services/http&#45;service.tsx -->
<g id="node41" class="node">
<title>infrastructure/services/http&#45;service.tsx</title>
<path fill="none" stroke="#c6c5fe" d="M3003.83,-279C3003.83,-279 2765.17,-279 2765.17,-279 2761.33,-279 2757.5,-275.17 2757.5,-271.33 2757.5,-271.33 2757.5,-263.67 2757.5,-263.67 2757.5,-259.83 2761.33,-256 2765.17,-256 2765.17,-256 3003.83,-256 3003.83,-256 3007.67,-256 3011.5,-259.83 3011.5,-263.67 3011.5,-263.67 3011.5,-271.33 3011.5,-271.33 3011.5,-275.17 3007.67,-279 3003.83,-279"/>
<text text-anchor="middle" x="2884.5" y="-263.8" font-family="Arial" font-size="14.00" fill="#c6c5fe">infrastructure/services/http&#45;service.tsx</text>
</g>
<!-- modules/Home/homeService.tsx&#45;&gt;infrastructure/services/http&#45;service.tsx -->
<g id="edge64" class="edge">
<title>modules/Home/homeService.tsx&#45;&gt;infrastructure/services/http&#45;service.tsx</title>
<path fill="none" stroke="#757575" d="M2575.65,-343.65C2604.43,-339.78 2634.72,-332.77 2661,-320.5 2680.67,-311.32 2677.22,-296.44 2697,-287.5 2712.63,-280.44 2729.72,-275.44 2747.01,-271.94"/>
<polygon fill="#757575" stroke="#757575" points="2748.01,-275.32 2757.2,-270.06 2746.73,-268.44 2748.01,-275.32"/>
</g>
<!-- redux/hooks.ts&#45;&gt;redux/store.tsx -->
<g id="edge68" class="edge">
<title>redux/hooks.ts&#45;&gt;redux/store.tsx</title>
<path fill="none" stroke="#757575" d="M2518.85,-261.35C2595.78,-254 2736.91,-240.51 2819.21,-232.65"/>
<polygon fill="#757575" stroke="#757575" points="2819.57,-236.13 2829.19,-231.69 2818.9,-229.16 2819.57,-236.13"/>
</g>
<!-- components/Header/Language.tsx&#45;&gt;lang/local.tsx -->
<g id="edge29" class="edge">
<title>components/Header/Language.tsx&#45;&gt;lang/local.tsx</title>
<path fill="none" stroke="#757575" d="M2993.61,-535.98C3061.73,-528.73 3147.03,-519.64 3202.71,-513.71"/>
<polygon fill="#757575" stroke="#757575" points="3203.18,-517.18 3212.75,-512.64 3202.44,-510.22 3203.18,-517.18"/>
</g>
<!-- components/Sidebar/Sidebar.scss -->
<g id="node30" class="node">
<title>components/Sidebar/Sidebar.scss</title>
<path fill="none" stroke="#cfffac" d="M1760.83,-261C1760.83,-261 1540.17,-261 1540.17,-261 1536.33,-261 1532.5,-257.17 1532.5,-253.33 1532.5,-253.33 1532.5,-245.67 1532.5,-245.67 1532.5,-241.83 1536.33,-238 1540.17,-238 1540.17,-238 1760.83,-238 1760.83,-238 1764.67,-238 1768.5,-241.83 1768.5,-245.67 1768.5,-245.67 1768.5,-253.33 1768.5,-253.33 1768.5,-257.17 1764.67,-261 1760.83,-261"/>
<text text-anchor="middle" x="1650.5" y="-245.8" font-family="Arial" font-size="14.00" fill="#cfffac">components/Sidebar/Sidebar.scss</text>
</g>
<!-- components/Sidebar/SidebarView.tsx -->
<g id="node32" class="node">
<title>components/Sidebar/SidebarView.tsx</title>
<path fill="none" stroke="#c6c5fe" d="M1487.33,-282C1487.33,-282 1248.67,-282 1248.67,-282 1244.83,-282 1241,-278.17 1241,-274.33 1241,-274.33 1241,-266.67 1241,-266.67 1241,-262.83 1244.83,-259 1248.67,-259 1248.67,-259 1487.33,-259 1487.33,-259 1491.17,-259 1495,-262.83 1495,-266.67 1495,-266.67 1495,-274.33 1495,-274.33 1495,-278.17 1491.17,-282 1487.33,-282"/>
<text text-anchor="middle" x="1368" y="-266.8" font-family="Arial" font-size="14.00" fill="#c6c5fe">components/Sidebar/SidebarView.tsx</text>
</g>
<!-- components/Sidebar/SidebarController.tsx&#45;&gt;components/Sidebar/SidebarView.tsx -->
<g id="edge30" class="edge">
<title>components/Sidebar/SidebarController.tsx&#45;&gt;components/Sidebar/SidebarView.tsx</title>
<path fill="none" stroke="#757575" d="M1144.83,-301.98C1185.14,-296.27 1233.97,-289.35 1275.57,-283.45"/>
<polygon fill="#757575" stroke="#757575" points="1276.3,-286.89 1285.71,-282.02 1275.31,-279.96 1276.3,-286.89"/>
</g>
<!-- components/Sidebar/SidebarController.tsx&#45;&gt;routing/routes.tsx -->
<g id="edge31" class="edge">
<title>components/Sidebar/SidebarController.tsx&#45;&gt;routing/routes.tsx</title>
<path fill="none" stroke="#757575" d="M1205.03,-322.36C1236.27,-324.32 1268.1,-326.31 1295.17,-328"/>
<polygon fill="#757575" stroke="#757575" points="1295.11,-331.51 1305.31,-328.64 1295.54,-324.52 1295.11,-331.51"/>
</g>
<!-- components/Sidebar/SidebarView.tsx&#45;&gt;components/Sidebar/Sidebar.scss -->
<g id="edge32" class="edge">
<title>components/Sidebar/SidebarView.tsx&#45;&gt;components/Sidebar/Sidebar.scss</title>
<path fill="none" stroke="#757575" d="M1495.3,-261.04C1504.28,-260.37 1513.34,-259.69 1522.32,-259.02"/>
<polygon fill="#757575" stroke="#757575" points="1522.72,-262.5 1532.43,-258.26 1522.2,-255.52 1522.72,-262.5"/>
</g>
<!-- modules/Home/HomeController.tsx -->
<g id="node46" class="node">
<title>modules/Home/HomeController.tsx</title>
<path fill="none" stroke="#c6c5fe" d="M1762.33,-302C1762.33,-302 1538.67,-302 1538.67,-302 1534.83,-302 1531,-298.17 1531,-294.33 1531,-294.33 1531,-286.67 1531,-286.67 1531,-282.83 1534.83,-279 1538.67,-279 1538.67,-279 1762.33,-279 1762.33,-279 1766.17,-279 1770,-282.83 1770,-286.67 1770,-286.67 1770,-294.33 1770,-294.33 1770,-298.17 1766.17,-302 1762.33,-302"/>
<text text-anchor="middle" x="1650.5" y="-286.8" font-family="Arial" font-size="14.00" fill="#c6c5fe">modules/Home/HomeController.tsx</text>
</g>
<!-- routing/routes.tsx&#45;&gt;modules/Home/HomeController.tsx -->
<g id="edge79" class="edge">
<title>routing/routes.tsx&#45;&gt;modules/Home/HomeController.tsx</title>
<path fill="none" stroke="#757575" d="M1430.56,-323.28C1469.23,-317.49 1519.69,-309.94 1562.43,-303.54"/>
<polygon fill="#757575" stroke="#757575" points="1563.18,-306.96 1572.55,-302.02 1562.14,-300.04 1563.18,-306.96"/>
</g>
<!-- modules/PageNotFound.tsx -->
<g id="node58" class="node">
<title>modules/PageNotFound.tsx</title>
<path fill="none" stroke="#c6c5fe" d="M1739.33,-363C1739.33,-363 1561.67,-363 1561.67,-363 1557.83,-363 1554,-359.17 1554,-355.33 1554,-355.33 1554,-347.67 1554,-347.67 1554,-343.83 1557.83,-340 1561.67,-340 1561.67,-340 1739.33,-340 1739.33,-340 1743.17,-340 1747,-343.83 1747,-347.67 1747,-347.67 1747,-355.33 1747,-355.33 1747,-359.17 1743.17,-363 1739.33,-363"/>
<text text-anchor="middle" x="1650.5" y="-347.8" font-family="Arial" font-size="14.00" fill="#c6c5fe">modules/PageNotFound.tsx</text>
</g>
<!-- routing/routes.tsx&#45;&gt;modules/PageNotFound.tsx -->
<g id="edge80" class="edge">
<title>routing/routes.tsx&#45;&gt;modules/PageNotFound.tsx</title>
<path fill="none" stroke="#757575" d="M1430.56,-336.67C1463.72,-338.92 1505.56,-341.75 1543.75,-344.34"/>
<polygon fill="#757575" stroke="#757575" points="1543.69,-347.84 1553.9,-345.02 1544.16,-340.86 1543.69,-347.84"/>
</g>
<!-- config/env.config.tsx -->
<g id="node34" class="node">
<title>config/env.config.tsx</title>
<path fill="none" stroke="#cfffac" d="M3327.33,-279C3327.33,-279 3196.67,-279 3196.67,-279 3192.83,-279 3189,-275.17 3189,-271.33 3189,-271.33 3189,-263.67 3189,-263.67 3189,-259.83 3192.83,-256 3196.67,-256 3196.67,-256 3327.33,-256 3327.33,-256 3331.17,-256 3335,-259.83 3335,-263.67 3335,-263.67 3335,-271.33 3335,-271.33 3335,-275.17 3331.17,-279 3327.33,-279"/>
<text text-anchor="middle" x="3262" y="-263.8" font-family="Arial" font-size="14.00" fill="#cfffac">config/env.config.tsx</text>
</g>
<!-- core/interfaces/IError.tsx -->
<g id="node35" class="node">
<title>core/interfaces/IError.tsx</title>
<path fill="none" stroke="#cfffac" d="M3646.83,-238C3646.83,-238 3489.17,-238 3489.17,-238 3485.33,-238 3481.5,-234.17 3481.5,-230.33 3481.5,-230.33 3481.5,-222.67 3481.5,-222.67 3481.5,-218.83 3485.33,-215 3489.17,-215 3489.17,-215 3646.83,-215 3646.83,-215 3650.67,-215 3654.5,-218.83 3654.5,-222.67 3654.5,-222.67 3654.5,-230.33 3654.5,-230.33 3654.5,-234.17 3650.67,-238 3646.83,-238"/>
<text text-anchor="middle" x="3568" y="-222.8" font-family="Arial" font-size="14.00" fill="#cfffac">core/interfaces/IError.tsx</text>
</g>
<!-- hooks/useToggle.tsx -->
<g id="node37" class="node">
<title>hooks/useToggle.tsx</title>
<path fill="none" stroke="#cfffac" d="M216.33,-507C216.33,-507 82.67,-507 82.67,-507 78.83,-507 75,-503.17 75,-499.33 75,-499.33 75,-491.67 75,-491.67 75,-487.83 78.83,-484 82.67,-484 82.67,-484 216.33,-484 216.33,-484 220.17,-484 224,-487.83 224,-491.67 224,-491.67 224,-499.33 224,-499.33 224,-503.17 220.17,-507 216.33,-507"/>
<text text-anchor="middle" x="149.5" y="-491.8" font-family="Arial" font-size="14.00" fill="#cfffac">hooks/useToggle.tsx</text>
</g>
<!-- index.css -->
<g id="node38" class="node">
<title>index.css</title>
<path fill="none" stroke="#cfffac" d="M505.33,-302C505.33,-302 443.67,-302 443.67,-302 439.83,-302 436,-298.17 436,-294.33 436,-294.33 436,-286.67 436,-286.67 436,-282.83 439.83,-279 443.67,-279 443.67,-279 505.33,-279 505.33,-279 509.17,-279 513,-282.83 513,-286.67 513,-286.67 513,-294.33 513,-294.33 513,-298.17 509.17,-302 505.33,-302"/>
<text text-anchor="middle" x="474.5" y="-286.8" font-family="Arial" font-size="14.00" fill="#cfffac">index.css</text>
</g>
<!-- index.tsx -->
<g id="node39" class="node">
<title>index.tsx</title>
<path fill="none" stroke="#c6c5fe" d="M177.83,-343C177.83,-343 121.17,-343 121.17,-343 117.33,-343 113.5,-339.17 113.5,-335.33 113.5,-335.33 113.5,-327.67 113.5,-327.67 113.5,-323.83 117.33,-320 121.17,-320 121.17,-320 177.83,-320 177.83,-320 181.67,-320 185.5,-323.83 185.5,-327.67 185.5,-327.67 185.5,-335.33 185.5,-335.33 185.5,-339.17 181.67,-343 177.83,-343"/>
<text text-anchor="middle" x="149.5" y="-327.8" font-family="Arial" font-size="14.00" fill="#c6c5fe">index.tsx</text>
</g>
<!-- index.tsx&#45;&gt;App.tsx -->
<g id="edge33" class="edge">
<title>index.tsx&#45;&gt;App.tsx</title>
<path fill="none" stroke="#757575" d="M185.68,-335.97C245.62,-343.57 367.28,-359.02 431.55,-367.17"/>
<polygon fill="#757575" stroke="#757575" points="431.36,-370.68 441.73,-368.47 432.25,-363.74 431.36,-370.68"/>
</g>
<!-- index.tsx&#45;&gt;index.css -->
<g id="edge34" class="edge">
<title>index.tsx&#45;&gt;index.css</title>
<path fill="none" stroke="#757575" d="M185.68,-327.03C243.88,-319.65 360.27,-304.87 425.81,-296.55"/>
<polygon fill="#757575" stroke="#757575" points="426.4,-300.01 435.88,-295.28 425.52,-293.06 426.4,-300.01"/>
</g>
<!-- reportWebVitals.ts -->
<g id="node40" class="node">
<title>reportWebVitals.ts</title>
<path fill="none" stroke="#cfffac" d="M533.83,-343C533.83,-343 415.17,-343 415.17,-343 411.33,-343 407.5,-339.17 407.5,-335.33 407.5,-335.33 407.5,-327.67 407.5,-327.67 407.5,-323.83 411.33,-320 415.17,-320 415.17,-320 533.83,-320 533.83,-320 537.67,-320 541.5,-323.83 541.5,-327.67 541.5,-327.67 541.5,-335.33 541.5,-335.33 541.5,-339.17 537.67,-343 533.83,-343"/>
<text text-anchor="middle" x="474.5" y="-327.8" font-family="Arial" font-size="14.00" fill="#cfffac">reportWebVitals.ts</text>
</g>
<!-- index.tsx&#45;&gt;reportWebVitals.ts -->
<g id="edge35" class="edge">
<title>index.tsx&#45;&gt;reportWebVitals.ts</title>
<path fill="none" stroke="#757575" d="M185.68,-331.5C236.15,-331.5 330.37,-331.5 397.25,-331.5"/>
<polygon fill="#757575" stroke="#757575" points="397.32,-335 407.32,-331.5 397.32,-328 397.32,-335"/>
</g>
<!-- infrastructure/services/http&#45;service.tsx&#45;&gt;config/env.config.tsx -->
<g id="edge36" class="edge">
<title>infrastructure/services/http&#45;service.tsx&#45;&gt;config/env.config.tsx</title>
<path fill="none" stroke="#757575" d="M3011.58,-267.5C3066.68,-267.5 3129.75,-267.5 3178.68,-267.5"/>
<polygon fill="#757575" stroke="#757575" points="3178.9,-271 3188.9,-267.5 3178.9,-264 3178.9,-271"/>
</g>
<!-- infrastructure/services/interceptor&#45;service.tsx -->
<g id="node42" class="node">
<title>infrastructure/services/interceptor&#45;service.tsx</title>
<path fill="none" stroke="#c6c5fe" d="M291.33,-548C291.33,-548 7.67,-548 7.67,-548 3.83,-548 0,-544.17 0,-540.33 0,-540.33 0,-532.67 0,-532.67 0,-528.83 3.83,-525 7.67,-525 7.67,-525 291.33,-525 291.33,-525 295.17,-525 299,-528.83 299,-532.67 299,-532.67 299,-540.33 299,-540.33 299,-544.17 295.17,-548 291.33,-548"/>
<text text-anchor="middle" x="149.5" y="-532.8" font-family="Arial" font-size="14.00" fill="#c6c5fe">infrastructure/services/interceptor&#45;service.tsx</text>
</g>
<!-- infrastructure/services/storage&#45;service.tsx -->
<g id="node43" class="node">
<title>infrastructure/services/storage&#45;service.tsx</title>
<path fill="none" stroke="#cfffac" d="M606.33,-548C606.33,-548 342.67,-548 342.67,-548 338.83,-548 335,-544.17 335,-540.33 335,-540.33 335,-532.67 335,-532.67 335,-528.83 338.83,-525 342.67,-525 342.67,-525 606.33,-525 606.33,-525 610.17,-525 614,-528.83 614,-532.67 614,-532.67 614,-540.33 614,-540.33 614,-544.17 610.17,-548 606.33,-548"/>
<text text-anchor="middle" x="474.5" y="-532.8" font-family="Arial" font-size="14.00" fill="#cfffac">infrastructure/services/storage&#45;service.tsx</text>
</g>
<!-- infrastructure/services/interceptor&#45;service.tsx&#45;&gt;infrastructure/services/storage&#45;service.tsx -->
<g id="edge37" class="edge">
<title>infrastructure/services/interceptor&#45;service.tsx&#45;&gt;infrastructure/services/storage&#45;service.tsx</title>
<path fill="none" stroke="#757575" d="M299.24,-536.5C307.59,-536.5 316,-536.5 324.36,-536.5"/>
<polygon fill="#757575" stroke="#757575" points="324.52,-540 334.52,-536.5 324.52,-533 324.52,-540"/>
</g>
<!-- modules/Home/HomeController.tsx&#45;&gt;redux/store.tsx -->
<g id="edge46" class="edge">
<title>modules/Home/HomeController.tsx&#45;&gt;redux/store.tsx</title>
<path fill="none" stroke="#757575" d="M1755.97,-278.88C1760.96,-276.24 1765.69,-273.14 1770,-269.5 1806.12,-239.06 1767.35,-196.66 1806,-169.5 1883.77,-114.84 2566.4,-188.26 2661,-197.5 2714.41,-202.71 2774.78,-210.72 2819.14,-216.99"/>
<polygon fill="#757575" stroke="#757575" points="2818.81,-220.48 2829.2,-218.43 2819.8,-213.55 2818.81,-220.48"/>
</g>
<!-- modules/Home/HomeController.tsx&#45;&gt;modules/Home/homeService.tsx -->
<g id="edge44" class="edge">
<title>modules/Home/HomeController.tsx&#45;&gt;modules/Home/homeService.tsx</title>
<path fill="none" stroke="#757575" d="M1685.69,-302.07C1716.68,-311.96 1763.83,-325.51 1806,-331.5 1991.78,-357.89 2210.02,-356.56 2342.33,-352.24"/>
<polygon fill="#757575" stroke="#757575" points="2342.62,-355.73 2352.5,-351.9 2342.38,-348.74 2342.62,-355.73"/>
</g>
<!-- modules/Home/HomeController.tsx&#45;&gt;redux/hooks.ts -->
<g id="edge45" class="edge">
<title>modules/Home/HomeController.tsx&#45;&gt;redux/hooks.ts</title>
<path fill="none" stroke="#757575" d="M1770.37,-286.98C1944.57,-281.83 2263.2,-272.41 2398.98,-268.39"/>
<polygon fill="#757575" stroke="#757575" points="2399.32,-271.88 2409.21,-268.09 2399.11,-264.89 2399.32,-271.88"/>
</g>
<!-- modules/Home/Statistics/StatisticsController.tsx -->
<g id="node47" class="node">
<title>modules/Home/Statistics/StatisticsController.tsx</title>
<path fill="none" stroke="#c6c5fe" d="M2169.83,-202C2169.83,-202 1867.17,-202 1867.17,-202 1863.33,-202 1859.5,-198.17 1859.5,-194.33 1859.5,-194.33 1859.5,-186.67 1859.5,-186.67 1859.5,-182.83 1863.33,-179 1867.17,-179 1867.17,-179 2169.83,-179 2169.83,-179 2173.67,-179 2177.5,-182.83 2177.5,-186.67 2177.5,-186.67 2177.5,-194.33 2177.5,-194.33 2177.5,-198.17 2173.67,-202 2169.83,-202"/>
<text text-anchor="middle" x="2018.5" y="-186.8" font-family="Arial" font-size="14.00" fill="#c6c5fe">modules/Home/Statistics/StatisticsController.tsx</text>
</g>
<!-- modules/Home/HomeController.tsx&#45;&gt;modules/Home/Statistics/StatisticsController.tsx -->
<g id="edge41" class="edge">
<title>modules/Home/HomeController.tsx&#45;&gt;modules/Home/Statistics/StatisticsController.tsx</title>
<path fill="none" stroke="#757575" d="M1752.52,-278.94C1758.67,-276.33 1764.56,-273.21 1770,-269.5 1795.37,-252.18 1779.95,-226.78 1806,-210.5 1819.28,-202.2 1833.97,-196.11 1849.24,-191.71"/>
<polygon fill="#757575" stroke="#757575" points="1850.56,-194.98 1859.34,-189.06 1848.78,-188.21 1850.56,-194.98"/>
</g>
<!-- modules/Home/TableList/TableListController.tsx -->
<g id="node48" class="node">
<title>modules/Home/TableList/TableListController.tsx</title>
<path fill="none" stroke="#c6c5fe" d="M2171.33,-323C2171.33,-323 1865.67,-323 1865.67,-323 1861.83,-323 1858,-319.17 1858,-315.33 1858,-315.33 1858,-307.67 1858,-307.67 1858,-303.83 1861.83,-300 1865.67,-300 1865.67,-300 2171.33,-300 2171.33,-300 2175.17,-300 2179,-303.83 2179,-307.67 2179,-307.67 2179,-315.33 2179,-315.33 2179,-319.17 2175.17,-323 2171.33,-323"/>
<text text-anchor="middle" x="2018.5" y="-307.8" font-family="Arial" font-size="14.00" fill="#c6c5fe">modules/Home/TableList/TableListController.tsx</text>
</g>
<!-- modules/Home/HomeController.tsx&#45;&gt;modules/Home/TableList/TableListController.tsx -->
<g id="edge42" class="edge">
<title>modules/Home/HomeController.tsx&#45;&gt;modules/Home/TableList/TableListController.tsx</title>
<path fill="none" stroke="#757575" d="M1770.08,-297.3C1794.89,-298.73 1821.5,-300.25 1847.76,-301.76"/>
<polygon fill="#757575" stroke="#757575" points="1847.61,-305.26 1857.8,-302.34 1848.01,-298.27 1847.61,-305.26"/>
</g>
<!-- modules/Home/WeatherForecast/WeatherForecastController.tsx -->
<g id="node49" class="node">
<title>modules/Home/WeatherForecast/WeatherForecastController.tsx</title>
<path fill="none" stroke="#c6c5fe" d="M2223.33,-243C2223.33,-243 1813.67,-243 1813.67,-243 1809.83,-243 1806,-239.17 1806,-235.33 1806,-235.33 1806,-227.67 1806,-227.67 1806,-223.83 1809.83,-220 1813.67,-220 1813.67,-220 2223.33,-220 2223.33,-220 2227.17,-220 2231,-223.83 2231,-227.67 2231,-227.67 2231,-235.33 2231,-235.33 2231,-239.17 2227.17,-243 2223.33,-243"/>
<text text-anchor="middle" x="2018.5" y="-227.8" font-family="Arial" font-size="14.00" fill="#c6c5fe">modules/Home/WeatherForecast/WeatherForecastController.tsx</text>
</g>
<!-- modules/Home/HomeController.tsx&#45;&gt;modules/Home/WeatherForecast/WeatherForecastController.tsx -->
<g id="edge43" class="edge">
<title>modules/Home/HomeController.tsx&#45;&gt;modules/Home/WeatherForecast/WeatherForecastController.tsx</title>
<path fill="none" stroke="#757575" d="M1726.13,-278.99C1740.76,-276.25 1755.93,-273.07 1770,-269.5 1786.35,-265.35 1789.55,-261.21 1806,-257.5 1829.63,-252.17 1855.01,-247.86 1879.69,-244.4"/>
<polygon fill="#757575" stroke="#757575" points="1880.41,-247.84 1889.85,-243.02 1879.47,-240.9 1880.41,-247.84"/>
</g>
<!-- modules/Home/Statistics/StatisticsController.tsx&#45;&gt;redux/store.tsx -->
<g id="edge49" class="edge">
<title>modules/Home/Statistics/StatisticsController.tsx&#45;&gt;redux/store.tsx</title>
<path fill="none" stroke="#757575" d="M2177.72,-197.09C2369.73,-205.09 2684.49,-218.21 2819.13,-223.82"/>
<polygon fill="#757575" stroke="#757575" points="2819.14,-227.32 2829.28,-224.24 2819.44,-220.33 2819.14,-227.32"/>
</g>
<!-- modules/Home/Statistics/StatisticsController.tsx&#45;&gt;redux/hooks.ts -->
<g id="edge48" class="edge">
<title>modules/Home/Statistics/StatisticsController.tsx&#45;&gt;redux/hooks.ts</title>
<path fill="none" stroke="#757575" d="M2169.48,-202.01C2190.2,-204.38 2211.17,-207.19 2231,-210.5 2294.39,-221.09 2366.14,-239.41 2412.85,-252.2"/>
<polygon fill="#757575" stroke="#757575" points="2412.14,-255.64 2422.71,-254.92 2414,-248.89 2412.14,-255.64"/>
</g>
<!-- modules/Home/Statistics/StatisticsView.tsx -->
<g id="node51" class="node">
<title>modules/Home/Statistics/StatisticsView.tsx</title>
<path fill="none" stroke="#c6c5fe" d="M2599.83,-84C2599.83,-84 2328.17,-84 2328.17,-84 2324.33,-84 2320.5,-80.17 2320.5,-76.33 2320.5,-76.33 2320.5,-68.67 2320.5,-68.67 2320.5,-64.83 2324.33,-61 2328.17,-61 2328.17,-61 2599.83,-61 2599.83,-61 2603.67,-61 2607.5,-64.83 2607.5,-68.67 2607.5,-68.67 2607.5,-76.33 2607.5,-76.33 2607.5,-80.17 2603.67,-84 2599.83,-84"/>
<text text-anchor="middle" x="2464" y="-68.8" font-family="Arial" font-size="14.00" fill="#c6c5fe">modules/Home/Statistics/StatisticsView.tsx</text>
</g>
<!-- modules/Home/Statistics/StatisticsController.tsx&#45;&gt;modules/Home/Statistics/StatisticsView.tsx -->
<g id="edge47" class="edge">
<title>modules/Home/Statistics/StatisticsController.tsx&#45;&gt;modules/Home/Statistics/StatisticsView.tsx</title>
<path fill="none" stroke="#757575" d="M2062.83,-178.97C2144.47,-157.25 2320.83,-110.33 2409.63,-86.7"/>
<polygon fill="#757575" stroke="#757575" points="2410.73,-90.03 2419.49,-84.08 2408.93,-83.26 2410.73,-90.03"/>
</g>
<!-- modules/Home/TableList/TableListController.tsx&#45;&gt;redux/store.tsx -->
<g id="edge55" class="edge">
<title>modules/Home/TableList/TableListController.tsx&#45;&gt;redux/store.tsx</title>
<path fill="none" stroke="#757575" d="M2179.04,-319.26C2340.81,-324.65 2578.69,-325.09 2661,-286.5 2682.66,-276.35 2675.7,-257.38 2697,-246.5 2734.37,-227.4 2781.39,-222.47 2818.86,-222.27"/>
<polygon fill="#757575" stroke="#757575" points="2819.14,-225.77 2829.16,-222.33 2819.18,-218.77 2819.14,-225.77"/>
</g>
<!-- modules/Home/TableList/TableListController.tsx&#45;&gt;redux/hooks.ts -->
<g id="edge54" class="edge">
<title>modules/Home/TableList/TableListController.tsx&#45;&gt;redux/hooks.ts</title>
<path fill="none" stroke="#757575" d="M2132.85,-300C2217.31,-291.43 2329.6,-280.04 2399.05,-272.99"/>
<polygon fill="#757575" stroke="#757575" points="2399.8,-276.43 2409.39,-271.94 2399.09,-269.47 2399.8,-276.43"/>
</g>
<!-- modules/Home/TableList/TableListView.tsx -->
<g id="node53" class="node">
<title>modules/Home/TableList/TableListView.tsx</title>
<path fill="none" stroke="#c6c5fe" d="M2601.33,-479C2601.33,-479 2326.67,-479 2326.67,-479 2322.83,-479 2319,-475.17 2319,-471.33 2319,-471.33 2319,-463.67 2319,-463.67 2319,-459.83 2322.83,-456 2326.67,-456 2326.67,-456 2601.33,-456 2601.33,-456 2605.17,-456 2609,-459.83 2609,-463.67 2609,-463.67 2609,-471.33 2609,-471.33 2609,-475.17 2605.17,-479 2601.33,-479"/>
<text text-anchor="middle" x="2464" y="-463.8" font-family="Arial" font-size="14.00" fill="#c6c5fe">modules/Home/TableList/TableListView.tsx</text>
</g>
<!-- modules/Home/TableList/TableListController.tsx&#45;&gt;modules/Home/TableList/TableListView.tsx -->
<g id="edge53" class="edge">
<title>modules/Home/TableList/TableListController.tsx&#45;&gt;modules/Home/TableList/TableListView.tsx</title>
<path fill="none" stroke="#757575" d="M2126.72,-323.02C2163.08,-331.4 2201.84,-345.8 2231,-370.5 2259.83,-394.92 2236.2,-425.62 2267,-447.5 2279.64,-456.48 2293.95,-462.9 2308.93,-467.4"/>
<polygon fill="#757575" stroke="#757575" points="2308.3,-470.85 2318.87,-470.08 2310.13,-464.09 2308.3,-470.85"/>
</g>
<!-- modules/Home/WeatherForecast/WeatherForecastController.tsx&#45;&gt;redux/store.tsx -->
<g id="edge61" class="edge">
<title>modules/Home/WeatherForecast/WeatherForecastController.tsx&#45;&gt;redux/store.tsx</title>
<path fill="none" stroke="#757575" d="M2231.13,-230.28C2423.62,-229.16 2695.81,-227.59 2818.76,-226.87"/>
<polygon fill="#757575" stroke="#757575" points="2819.15,-230.37 2829.13,-226.81 2819.11,-223.37 2819.15,-230.37"/>
</g>
<!-- modules/Home/WeatherForecast/WeatherForecastController.tsx&#45;&gt;redux/hooks.ts -->
<g id="edge60" class="edge">
<title>modules/Home/WeatherForecast/WeatherForecastController.tsx&#45;&gt;redux/hooks.ts</title>
<path fill="none" stroke="#757575" d="M2165.33,-243.01C2244.45,-249.25 2338.23,-256.65 2399.08,-261.46"/>
<polygon fill="#757575" stroke="#757575" points="2399.06,-264.96 2409.3,-262.26 2399.61,-257.99 2399.06,-264.96"/>
</g>
<!-- modules/Home/WeatherForecast/WeatherForecastView.tsx -->
<g id="node55" class="node">
<title>modules/Home/WeatherForecast/WeatherForecastView.tsx</title>
<path fill="none" stroke="#c6c5fe" d="M2653.33,-438C2653.33,-438 2274.67,-438 2274.67,-438 2270.83,-438 2267,-434.17 2267,-430.33 2267,-430.33 2267,-422.67 2267,-422.67 2267,-418.83 2270.83,-415 2274.67,-415 2274.67,-415 2653.33,-415 2653.33,-415 2657.17,-415 2661,-418.83 2661,-422.67 2661,-422.67 2661,-430.33 2661,-430.33 2661,-434.17 2657.17,-438 2653.33,-438"/>
<text text-anchor="middle" x="2464" y="-422.8" font-family="Arial" font-size="14.00" fill="#c6c5fe">modules/Home/WeatherForecast/WeatherForecastView.tsx</text>
</g>
<!-- modules/Home/WeatherForecast/WeatherForecastController.tsx&#45;&gt;modules/Home/WeatherForecast/WeatherForecastView.tsx -->
<g id="edge59" class="edge">
<title>modules/Home/WeatherForecast/WeatherForecastController.tsx&#45;&gt;modules/Home/WeatherForecast/WeatherForecastView.tsx</title>
<path fill="none" stroke="#757575" d="M2126.38,-243.03C2162.81,-251.42 2201.7,-265.81 2231,-290.5 2259.58,-314.58 2238.72,-342.06 2267,-366.5 2293.71,-389.59 2329.15,-403.79 2362.55,-412.53"/>
<polygon fill="#757575" stroke="#757575" points="2361.82,-415.95 2372.37,-414.96 2363.5,-409.16 2361.82,-415.95"/>
</g>
<!-- modules/Home/Statistics/Statistics.scss -->
<g id="node50" class="node">
<title>modules/Home/Statistics/Statistics.scss</title>
<path fill="none" stroke="#cfffac" d="M3011.33,-125C3011.33,-125 2757.67,-125 2757.67,-125 2753.83,-125 2750,-121.17 2750,-117.33 2750,-117.33 2750,-109.67 2750,-109.67 2750,-105.83 2753.83,-102 2757.67,-102 2757.67,-102 3011.33,-102 3011.33,-102 3015.17,-102 3019,-105.83 3019,-109.67 3019,-109.67 3019,-117.33 3019,-117.33 3019,-121.17 3015.17,-125 3011.33,-125"/>
<text text-anchor="middle" x="2884.5" y="-109.8" font-family="Arial" font-size="14.00" fill="#cfffac">modules/Home/Statistics/Statistics.scss</text>
</g>
<!-- modules/Home/Statistics/StatisticsView.tsx&#45;&gt;components/Charts/AreaChart.js -->
<g id="edge50" class="edge">
<title>modules/Home/Statistics/StatisticsView.tsx&#45;&gt;components/Charts/AreaChart.js</title>
<path fill="none" stroke="#757575" d="M2607.56,-72.5C2658.09,-72.5 2714.42,-72.5 2762.94,-72.5"/>
<polygon fill="#757575" stroke="#757575" points="2763.17,-76 2773.17,-72.5 2763.17,-69 2763.17,-76"/>
</g>
<!-- modules/Home/Statistics/StatisticsView.tsx&#45;&gt;components/Charts/d3/Chart.js -->
<g id="edge51" class="edge">
<title>modules/Home/Statistics/StatisticsView.tsx&#45;&gt;components/Charts/d3/Chart.js</title>
<path fill="none" stroke="#757575" d="M2582.41,-61C2640.46,-55.31 2710.27,-48.47 2768.05,-42.81"/>
<polygon fill="#757575" stroke="#757575" points="2768.71,-46.26 2778.33,-41.8 2768.03,-39.3 2768.71,-46.26"/>
</g>
<!-- modules/Home/Statistics/StatisticsView.tsx&#45;&gt;modules/Home/Statistics/Statistics.scss -->
<g id="edge52" class="edge">
<title>modules/Home/Statistics/StatisticsView.tsx&#45;&gt;modules/Home/Statistics/Statistics.scss</title>
<path fill="none" stroke="#757575" d="M2582.41,-84C2636.36,-89.29 2700.46,-95.57 2755.63,-100.97"/>
<polygon fill="#757575" stroke="#757575" points="2755.53,-104.48 2765.82,-101.97 2756.21,-97.51 2755.53,-104.48"/>
</g>
<!-- modules/Home/TableList/TableList.scss -->
<g id="node52" class="node">
<title>modules/Home/TableList/TableList.scss</title>
<path fill="none" stroke="#cfffac" d="M3012.83,-441C3012.83,-441 2756.17,-441 2756.17,-441 2752.33,-441 2748.5,-437.17 2748.5,-433.33 2748.5,-433.33 2748.5,-425.67 2748.5,-425.67 2748.5,-421.83 2752.33,-418 2756.17,-418 2756.17,-418 3012.83,-418 3012.83,-418 3016.67,-418 3020.5,-421.83 3020.5,-425.67 3020.5,-425.67 3020.5,-433.33 3020.5,-433.33 3020.5,-437.17 3016.67,-441 3012.83,-441"/>
<text text-anchor="middle" x="2884.5" y="-425.8" font-family="Arial" font-size="14.00" fill="#cfffac">modules/Home/TableList/TableList.scss</text>
</g>
<!-- modules/Home/TableList/TableListView.tsx&#45;&gt;lang/local.tsx -->
<g id="edge57" class="edge">
<title>modules/Home/TableList/TableListView.tsx&#45;&gt;lang/local.tsx</title>
<path fill="none" stroke="#757575" d="M2609.17,-472.41C2732.2,-476.91 2913.79,-484.25 3072,-493.5 3115.83,-496.06 3165.33,-499.76 3202.67,-502.71"/>
<polygon fill="#757575" stroke="#757575" points="3202.62,-506.21 3212.86,-503.52 3203.17,-499.24 3202.62,-506.21"/>
</g>
<!-- modules/Home/TableList/TableListView.tsx&#45;&gt;components/CustomTable/CustomTable.tsx -->
<g id="edge56" class="edge">
<title>modules/Home/TableList/TableListView.tsx&#45;&gt;components/CustomTable/CustomTable.tsx</title>
<path fill="none" stroke="#757575" d="M2609.2,-464.9C2627.22,-461.11 2644.94,-455.53 2661,-447.5 2682.1,-436.95 2675.93,-419.1 2697,-408.5 2706.26,-403.84 2716.1,-400.03 2726.23,-396.93"/>
<polygon fill="#757575" stroke="#757575" points="2727.35,-400.26 2736.03,-394.18 2725.45,-393.52 2727.35,-400.26"/>
</g>
<!-- modules/Home/TableList/TableListView.tsx&#45;&gt;modules/Home/TableList/TableList.scss -->
<g id="edge58" class="edge">
<title>modules/Home/TableList/TableListView.tsx&#45;&gt;modules/Home/TableList/TableList.scss</title>
<path fill="none" stroke="#757575" d="M2591.7,-456C2640.54,-451.56 2696.53,-446.48 2746.31,-441.96"/>
<polygon fill="#757575" stroke="#757575" points="2746.87,-445.42 2756.51,-441.03 2746.23,-438.45 2746.87,-445.42"/>
</g>
<!-- modules/Home/WeatherForecast/WeatherForecast.scss -->
<g id="node54" class="node">
<title>modules/Home/WeatherForecast/WeatherForecast.scss</title>
<path fill="none" stroke="#cfffac" d="M3064.33,-320C3064.33,-320 2704.67,-320 2704.67,-320 2700.83,-320 2697,-316.17 2697,-312.33 2697,-312.33 2697,-304.67 2697,-304.67 2697,-300.83 2700.83,-297 2704.67,-297 2704.67,-297 3064.33,-297 3064.33,-297 3068.17,-297 3072,-300.83 3072,-304.67 3072,-304.67 3072,-312.33 3072,-312.33 3072,-316.17 3068.17,-320 3064.33,-320"/>
<text text-anchor="middle" x="2884.5" y="-304.8" font-family="Arial" font-size="14.00" fill="#cfffac">modules/Home/WeatherForecast/WeatherForecast.scss</text>
</g>
<!-- modules/Home/WeatherForecast/WeatherForecastView.tsx&#45;&gt;lang/local.tsx -->
<g id="edge62" class="edge">
<title>modules/Home/WeatherForecast/WeatherForecastView.tsx&#45;&gt;lang/local.tsx</title>
<path fill="none" stroke="#757575" d="M2620.29,-414.96C2634.39,-411.23 2648.17,-406.49 2661,-400.5 2680.67,-391.32 2676.77,-375.37 2697,-367.5 2774.66,-337.29 2996.08,-333.13 3072,-367.5 3094.09,-377.5 3089.65,-392.65 3108,-408.5 3146.9,-442.09 3198.05,-472.92 3230.23,-490.96"/>
<polygon fill="#757575" stroke="#757575" points="3228.73,-494.13 3239.18,-495.92 3232.13,-488.01 3228.73,-494.13"/>
</g>
<!-- modules/Home/WeatherForecast/WeatherForecastView.tsx&#45;&gt;modules/Home/WeatherForecast/WeatherForecast.scss -->
<g id="edge63" class="edge">
<title>modules/Home/WeatherForecast/WeatherForecastView.tsx&#45;&gt;modules/Home/WeatherForecast/WeatherForecast.scss</title>
<path fill="none" stroke="#757575" d="M2634.19,-414.92C2643.63,-410.99 2652.65,-406.23 2661,-400.5 2688.55,-381.59 2669.52,-353.5 2697,-334.5 2702.6,-330.63 2708.52,-327.21 2714.68,-324.21"/>
<polygon fill="#757575" stroke="#757575" points="2716.17,-327.38 2723.86,-320.09 2713.3,-320.99 2716.17,-327.38"/>
</g>
<!-- modules/Home/homeActions.tsx -->
<g id="node56" class="node">
<title>modules/Home/homeActions.tsx</title>
<path fill="none" stroke="#cfffac" d="M3671.33,-197C3671.33,-197 3464.67,-197 3464.67,-197 3460.83,-197 3457,-193.17 3457,-189.33 3457,-189.33 3457,-181.67 3457,-181.67 3457,-177.83 3460.83,-174 3464.67,-174 3464.67,-174 3671.33,-174 3671.33,-174 3675.17,-174 3679,-177.83 3679,-181.67 3679,-181.67 3679,-189.33 3679,-189.33 3679,-193.17 3675.17,-197 3671.33,-197"/>
<text text-anchor="middle" x="3568" y="-181.8" font-family="Arial" font-size="14.00" fill="#cfffac">modules/Home/homeActions.tsx</text>
</g>
<!-- modules/Home/homeSlice.tsx&#45;&gt;modules/Home/homeActions.tsx -->
<g id="edge66" class="edge">
<title>modules/Home/homeSlice.tsx&#45;&gt;modules/Home/homeActions.tsx</title>
<path fill="none" stroke="#757575" d="M3365.07,-185.5C3391.23,-185.5 3419.6,-185.5 3446.58,-185.5"/>
<polygon fill="#757575" stroke="#757575" points="3446.85,-189 3456.85,-185.5 3446.85,-182 3446.85,-189"/>
</g>
<!-- modules/PageNotFound.tsx&#45;&gt;lang/local.tsx -->
<g id="edge67" class="edge">
<title>modules/PageNotFound.tsx&#45;&gt;lang/local.tsx</title>
<path fill="none" stroke="#757575" d="M1676.66,-363.12C1706.79,-376.6 1759.11,-398.62 1806,-411.5 2331.82,-555.87 3002.85,-525.26 3202.49,-511.92"/>
<polygon fill="#757575" stroke="#757575" points="3203.01,-515.39 3212.75,-511.22 3202.53,-508.41 3203.01,-515.39"/>
</g>
<!-- react&#45;app&#45;env.d.ts -->
<g id="node59" class="node">
<title>react&#45;app&#45;env.d.ts</title>
<path fill="none" stroke="#cfffac" d="M207.33,-589C207.33,-589 91.67,-589 91.67,-589 87.83,-589 84,-585.17 84,-581.33 84,-581.33 84,-573.67 84,-573.67 84,-569.83 87.83,-566 91.67,-566 91.67,-566 207.33,-566 207.33,-566 211.17,-566 215,-569.83 215,-573.67 215,-573.67 215,-581.33 215,-581.33 215,-585.17 211.17,-589 207.33,-589"/>
<text text-anchor="middle" x="149.5" y="-573.8" font-family="Arial" font-size="14.00" fill="#cfffac">react&#45;app&#45;env.d.ts</text>
</g>
<!-- redux/actions/errorActions.tsx -->
<g id="node60" class="node">
<title>redux/actions/errorActions.tsx</title>
<path fill="none" stroke="#cfffac" d="M3661.83,-279C3661.83,-279 3474.17,-279 3474.17,-279 3470.33,-279 3466.5,-275.17 3466.5,-271.33 3466.5,-271.33 3466.5,-263.67 3466.5,-263.67 3466.5,-259.83 3470.33,-256 3474.17,-256 3474.17,-256 3661.83,-256 3661.83,-256 3665.67,-256 3669.5,-259.83 3669.5,-263.67 3669.5,-263.67 3669.5,-271.33 3669.5,-271.33 3669.5,-275.17 3665.67,-279 3661.83,-279"/>
<text text-anchor="middle" x="3568" y="-263.8" font-family="Arial" font-size="14.00" fill="#cfffac">redux/actions/errorActions.tsx</text>
</g>
<!-- redux/reducers/errorSlice.tsx&#45;&gt;core/interfaces/IError.tsx -->
<g id="edge69" class="edge">
<title>redux/reducers/errorSlice.tsx&#45;&gt;core/interfaces/IError.tsx</title>
<path fill="none" stroke="#757575" d="M3361.7,-226.5C3396.81,-226.5 3436.26,-226.5 3471.13,-226.5"/>
<polygon fill="#757575" stroke="#757575" points="3471.31,-230 3481.31,-226.5 3471.31,-223 3471.31,-230"/>
</g>
<!-- redux/reducers/errorSlice.tsx&#45;&gt;redux/actions/errorActions.tsx -->
<g id="edge70" class="edge">
<title>redux/reducers/errorSlice.tsx&#45;&gt;redux/actions/errorActions.tsx</title>
<path fill="none" stroke="#757575" d="M3352.01,-238.01C3373,-240.76 3395.29,-243.71 3416,-246.5 3435.1,-249.08 3455.55,-251.89 3475.03,-254.59"/>
<polygon fill="#757575" stroke="#757575" points="3474.74,-258.08 3485.12,-255.99 3475.7,-251.15 3474.74,-258.08"/>
</g>
<!-- routing/Layout/Layout.scss -->
<g id="node62" class="node">
<title>routing/Layout/Layout.scss</title>
<path fill="none" stroke="#c6c5fe" d="M1735.33,-601C1735.33,-601 1565.67,-601 1565.67,-601 1561.83,-601 1558,-597.17 1558,-593.33 1558,-593.33 1558,-585.67 1558,-585.67 1558,-581.83 1561.83,-578 1565.67,-578 1565.67,-578 1735.33,-578 1735.33,-578 1739.17,-578 1743,-581.83 1743,-585.67 1743,-585.67 1743,-593.33 1743,-593.33 1743,-597.17 1739.17,-601 1735.33,-601"/>
<text text-anchor="middle" x="1650.5" y="-585.8" font-family="Arial" font-size="14.00" fill="#c6c5fe">routing/Layout/Layout.scss</text>
</g>
<!-- routing/Layout/Layout.scss&#45;&gt;assets/sass/_Variables.scss -->
<g id="edge73" class="edge">
<title>routing/Layout/Layout.scss&#45;&gt;assets/sass/_Variables.scss</title>
<path fill="none" stroke="#757575" d="M1719.13,-601.02C1885.1,-628.77 2326.05,-699.32 2697,-730.5 2855.38,-743.81 3039.52,-747.88 3153.17,-749.08"/>
<polygon fill="#757575" stroke="#757575" points="3153.23,-752.58 3163.26,-749.18 3153.3,-745.58 3153.23,-752.58"/>
</g>
<!-- routing/Layout/LayoutView.tsx&#45;&gt;routing/Layout/Layout.scss -->
<g id="edge78" class="edge">
<title>routing/Layout/LayoutView.tsx&#45;&gt;routing/Layout/Layout.scss</title>
<path fill="none" stroke="#757575" d="M1120.76,-483.03C1229.61,-504.95 1465.91,-552.53 1582.16,-575.94"/>
<polygon fill="#757575" stroke="#757575" points="1581.52,-579.38 1592.01,-577.92 1582.9,-572.52 1581.52,-579.38"/>
</g>
<!-- setupTests.ts -->
<g id="node64" class="node">
<title>setupTests.ts</title>
<path fill="none" stroke="#cfffac" d="M193.33,-630C193.33,-630 105.67,-630 105.67,-630 101.83,-630 98,-626.17 98,-622.33 98,-622.33 98,-614.67 98,-614.67 98,-610.83 101.83,-607 105.67,-607 105.67,-607 193.33,-607 193.33,-607 197.17,-607 201,-610.83 201,-614.67 201,-614.67 201,-622.33 201,-622.33 201,-626.17 197.17,-630 193.33,-630"/>
<text text-anchor="middle" x="149.5" y="-614.8" font-family="Arial" font-size="14.00" fill="#cfffac">setupTests.ts</text>
</g>
</g>
</svg>
